<?xml version="1.0" encoding="UTF-8"?>
<svg version="1.1" xmlns="http://www.w3.org/2000/svg" width="320" height="320">
<path d="M0 0 C105.6 0 211.2 0 320 0 C320 105.6 320 211.2 320 320 C214.4 320 108.8 320 0 320 C0 214.4 0 108.8 0 0 Z " fill="#EFF2E7" transform="translate(0,0)"/>
<path d="M0 0 C2.15911225 1.55125407 2.89685044 2.41770412 3.36328125 5.05078125 C3.25633469 9.81401633 2.57095584 13.47195082 1 18 C0.87422321 19.66517527 0.77200743 21.33222095 0.6875 23 C0.27017535 28.08377299 -1.54715686 30.21831466 -5 34 C-5.92235076 36.02761496 -6.64284089 38.04859099 -7.32421875 40.16796875 C-8 42 -8 42 -10 45 C-9.8104768 46.95827043 -9.8104768 46.95827043 -9.140625 49.03515625 C-7.8356509 54.22253321 -7.70322396 59.10892953 -7.75 64.4375 C-7.73839844 65.75331055 -7.73839844 65.75331055 -7.7265625 67.09570312 C-7.74436358 73.13471795 -8.11534841 79.21995937 -10 85 C-10.99 85.495 -10.99 85.495 -12 86 C-12.66 80.72 -13.32 75.44 -14 70 C-14.66 70.99 -15.32 71.98 -16 73 C-17.32 73 -18.64 73 -20 73 C-25.90996676 83.79641972 -26.32464171 96.45625009 -26.70947266 108.52392578 C-26.74886963 109.74571533 -26.74886963 109.74571533 -26.7890625 110.9921875 C-26.80662598 111.71776855 -26.82418945 112.44334961 -26.84228516 113.19091797 C-27 115 -27 115 -28 117 C-29.32 117 -30.64 117 -32 117 C-32.33 115.02 -32.66 113.04 -33 111 C-35.05270463 112.84188612 -35.05270463 112.84188612 -36 115 C-36.66 115 -37.32 115 -38 115 C-38.042721 116.66611905 -38.04063832 118.33382885 -38 120 C-37.505 120.495 -37.505 120.495 -37 121 C-36.95919217 122.99958364 -36.95745644 125.00045254 -37 127 C-46.52379605 112.71430592 -46.36376707 94.51098306 -46 78 C-49.14191424 79.53604696 -52.08596738 81.05731159 -55 83 C-55.58791989 68.23667843 -52.72767997 54.51962101 -43 43 C-42.01 43 -41.02 43 -40 43 C-39.67 41.68 -39.34 40.36 -39 39 C-38.34 39 -37.68 39 -37 39 C-36.896875 38.113125 -36.79375 37.22625 -36.6875 36.3125 C-35.97546061 32.88176473 -34.8379749 30.94075984 -33 28 C-32.690625 26.989375 -32.38125 25.97875 -32.0625 24.9375 C-30.88116177 21.67144726 -29.45843981 20.38161357 -27 18 C-26.29289322 16.35008418 -25.62056011 14.68437744 -25 13 C-23 11 -23 11 -20.63671875 10.12890625 C-17.61915811 8.83694325 -16.04781822 7.31982174 -13.8125 4.9375 C-9.56809289 0.44962785 -6.34877913 -1.05603455 0 0 Z " fill="#95958C" transform="translate(128,90)"/>
<path d="M0 0 C5.1484874 1.010693 10.71937128 3.29738916 13.90234375 7.5703125 C15.31149467 9.83685004 15.31149467 9.83685004 18.828125 10.39453125 C22.328125 11.45703125 22.328125 11.45703125 23.953125 13.83203125 C24.406875 14.69828125 24.860625 15.56453125 25.328125 16.45703125 C26.09125 16.99328125 26.854375 17.52953125 27.640625 18.08203125 C32.71195705 22.56367353 35.54373206 29.15479425 37.828125 35.45703125 C39.73378533 39.26835191 41.55740025 39.64708337 45.328125 41.45703125 C49.93674112 46.01527999 51.37598022 51.18992906 52.328125 57.45703125 C51.668125 57.45703125 51.008125 57.45703125 50.328125 57.45703125 C49.85375 56.96203125 49.379375 56.46703125 48.890625 55.95703125 C47.32842558 54.11076534 47.32842558 54.11076534 44.328125 54.45703125 C44.39 55.52953125 44.451875 56.60203125 44.515625 57.70703125 C44.32269191 61.56569312 43.93147424 62.74520913 41.328125 65.45703125 C41.328125 64.46703125 41.328125 63.47703125 41.328125 62.45703125 C40.668125 62.45703125 40.008125 62.45703125 39.328125 62.45703125 C39.5446875 63.63136719 39.76125 64.80570312 39.984375 66.015625 C41.90705593 76.94965895 42.71157731 87.36531819 42.328125 98.45703125 C41.668125 98.45703125 41.008125 98.45703125 40.328125 98.45703125 C40.15894232 96.87396478 39.99288564 95.29056406 39.828125 93.70703125 C39.68890625 92.38445312 39.68890625 92.38445312 39.546875 91.03515625 C39.328125 88.45703125 39.328125 88.45703125 39.328125 84.45703125 C38.338125 84.45703125 37.348125 84.45703125 36.328125 84.45703125 C36.328125 85.11703125 36.328125 85.77703125 36.328125 86.45703125 C33.853125 87.44703125 33.853125 87.44703125 31.328125 88.45703125 C31.14636719 87.75835937 30.96460938 87.0596875 30.77734375 86.33984375 C30.52597656 85.42976563 30.27460938 84.5196875 30.015625 83.58203125 C29.77199219 82.67710938 29.52835938 81.7721875 29.27734375 80.83984375 C28.46142648 78.13589806 28.46142648 78.13589806 25.328125 76.45703125 C25.328125 75.79703125 25.328125 75.13703125 25.328125 74.45703125 C22.81729386 75.71244682 22.45687054 76.95766613 21.328125 79.45703125 C20.338125 79.45703125 19.348125 79.45703125 18.328125 79.45703125 C18.204375 80.32328125 18.080625 81.18953125 17.953125 82.08203125 C17.34754379 85.35216978 16.44506465 88.32960024 15.328125 91.45703125 C14.998125 91.45703125 14.668125 91.45703125 14.328125 91.45703125 C13.04149712 86.17311285 12.07395234 81.02570037 11.671875 75.59765625 C11.40682655 73.37718779 11.40682655 73.37718779 10.328125 71.16870117 C9.25372768 68.25529027 9.04583401 66.02409587 8.984375 62.9296875 C8.95472656 61.89005859 8.92507812 60.85042969 8.89453125 59.77929688 C8.87261719 58.70357422 8.85070312 57.62785156 8.828125 56.51953125 C8.78337206 47.28206875 8.78337206 47.28206875 6.328125 38.45703125 C5.338125 38.45703125 4.348125 38.45703125 3.328125 38.45703125 C-1.63543817 33.18324539 -3.75841309 27.64102921 -5.1328125 20.6875 C-5.67097023 18.16245301 -5.67097023 18.16245301 -7.296875 14.83203125 C-9.1587152 10.26205985 -9.56677141 6.63834124 -7.671875 2.01953125 C-5.16269508 0.05923443 -3.14766561 -0.15738328 0 0 Z " fill="#DC9B93" transform="translate(161.671875,16.54296875)"/>
<path d="M0 0 C2.15911225 1.55125407 2.89685044 2.41770412 3.36328125 5.05078125 C3.25651488 9.80599109 2.59896988 13.48526152 1 18 C0.55088501 20.99080969 0.25444042 23.98688976 0 27 C-0.804375 27.2475 -1.60875 27.495 -2.4375 27.75 C-5.14904979 28.7023933 -5.14904979 28.7023933 -5.6875 30.9375 C-5.790625 31.618125 -5.89375 32.29875 -6 33 C-6.66 33.99 -7.32 34.98 -8 36 C-8.66 36 -9.32 36 -10 36 C-10 34.35 -10 32.7 -10 31 C-16.28869627 34.28848633 -19.37950867 39.65308962 -21.82421875 46.2109375 C-22.27877459 47.79059963 -22.65081623 49.39375464 -23 51 C-23.66 51 -24.32 51 -25 51 C-25.268125 52.010625 -25.53625 53.02125 -25.8125 54.0625 C-26.53822135 56.66472941 -27.35577031 58.72577143 -28.5625 61.1875 C-30.40061276 65.28438814 -30.42117599 69.37540862 -30.6875 73.80859375 C-31.10640303 78.08664089 -32.18374758 82.07755202 -33.30078125 86.21875 C-34.20381414 89.81070204 -34.64588758 93.31723088 -35 97 C-35.66 96.67 -36.32 96.34 -37 96 C-37.45544231 76.77799889 -37.71998011 58.57782552 -29 41 C-28.34 41 -27.68 41 -27 41 C-25.299227 34.26718787 -24.89234337 28.86747109 -26 22 C-26.66 22 -27.32 22 -28 22 C-27.06916801 17.81125605 -26.08035356 14.08035356 -23 11 C-22.22011719 10.71253906 -21.44023438 10.42507812 -20.63671875 10.12890625 C-17.61915811 8.83694325 -16.04781822 7.31982174 -13.8125 4.9375 C-9.56809289 0.44962785 -6.34877913 -1.05603455 0 0 Z M-29 22 C-28.34 22.66 -27.68 23.32 -27 24 C-27.99 24.495 -27.99 24.495 -29 25 C-29 24.01 -29 23.02 -29 22 Z " fill="#25262C" transform="translate(128,90)"/>
<path d="M0 0 C4.09036245 2.04518122 5.4557913 7.90023465 7 12 C7.59529024 14.72983095 7.84153561 17.20046238 8 20 C7.01 20 6.02 20 5 20 C3.95550089 23.13349732 4.06576355 23.98968256 5 27 C3.68 26.01 2.36 25.02 1 24 C0.97494385 24.78536133 0.9498877 25.57072266 0.92407227 26.37988281 C0.80667913 30.00336428 0.68461408 33.62667468 0.5625 37.25 C0.52318359 38.48492187 0.48386719 39.71984375 0.44335938 40.9921875 C-0.29555085 62.59110169 -0.29555085 62.59110169 -2 66 C-2.66 66 -3.32 66 -4 66 C-4.04898438 66.79664063 -4.09796875 67.59328125 -4.1484375 68.4140625 C-4.89103691 78.93848858 -4.89103691 78.93848858 -7 84 C-7.66 84 -8.32 84 -9 84 C-8.86722656 83.40832031 -8.73445313 82.81664062 -8.59765625 82.20703125 C-8.23432442 80.5813202 -7.87374061 78.95499305 -7.515625 77.328125 C-7.12630359 75.57027986 -6.72279272 73.81556891 -6.3125 72.0625 C-5.7886866 69.94249596 -5.7886866 69.94249596 -7 68 C-6.34 68 -5.68 68 -5 68 C-5.33 67.01 -5.66 66.02 -6 65 C-5.60024684 62.75523228 -5.11034401 60.52578978 -4.5625 58.3125 C-4.27503906 57.13300781 -3.98757812 55.95351562 -3.69140625 54.73828125 C-3.46324219 53.83464844 -3.23507813 52.93101563 -3 52 C-3.99 52 -4.98 52 -6 52 C-6.33 53.32 -6.66 54.64 -7 56 C-7.66 54.68 -8.32 53.36 -9 52 C-9.33 54.97 -9.66 57.94 -10 61 C-11.98 61.495 -11.98 61.495 -14 62 C-14 62.66 -14 63.32 -14 64 C-12.35 64 -10.7 64 -9 64 C-9 65.65 -9 67.3 -9 69 C-10.875 70.0625 -10.875 70.0625 -13 71 C-13.66 70.67 -14.32 70.34 -15 70 C-14.9175 71.258125 -14.835 72.51625 -14.75 73.8125 C-14.734375 76.01953125 -14.734375 76.01953125 -15 78 C-17 80 -17 80 -19 81 C-18.67 80.01 -18.34 79.02 -18 78 C-17.76312952 73.83744921 -17.81480562 69.66856339 -17.8125 65.5 C-17.80025391 64.365625 -17.78800781 63.23125 -17.77539062 62.0625 C-17.76088517 53.62999739 -18.02929632 45.04667438 -21.5625 37.25 C-23.50383215 32.86090123 -24 28.76962759 -24 24 C-20.54145481 27.45854519 -20 31.21904213 -20 36 C-18.35 35.34 -16.7 34.68 -15 34 C-15 33.34 -15 32.68 -15 32 C-14.01 32 -13.02 32 -12 32 C-11.83081732 33.58306647 -11.66476064 35.16646719 -11.5 36.75 C-11.4071875 37.63171875 -11.314375 38.5134375 -11.21875 39.421875 C-11 42 -11 42 -11 46 C-10.34 46 -9.68 46 -9 46 C-9.43456176 36.55399967 -10.08113216 27.29579897 -11.59765625 17.953125 C-11.96537693 15.25412664 -12.07551867 12.7186721 -12 10 C-10.68 9.67 -9.36 9.34 -8 9 C-7.67 6.69 -7.34 4.38 -7 2 C-6.01 1.67 -5.02 1.34 -4 1 C-3.01 1.66 -2.02 2.32 -1 3 C-1 3.66 -1 4.32 -1 5 C-0.34 5 0.32 5 1 5 C0.67 3.35 0.34 1.7 0 0 Z " fill="#E0AAA4" transform="translate(213,69)"/>
<path d="M0 0 C3.32909186 0.63948657 5.52978511 2.23566891 8.07421875 4.3984375 C8.07421875 5.0584375 8.07421875 5.7184375 8.07421875 6.3984375 C8.69296875 6.5015625 9.31171875 6.6046875 9.94921875 6.7109375 C12.07421875 7.3984375 12.07421875 7.3984375 14.07421875 10.3984375 C15.22921875 10.7078125 16.38421875 11.0171875 17.57421875 11.3359375 C21.07421875 12.3984375 21.07421875 12.3984375 22.57421875 14.2734375 C23.1620513 16.77172584 22.99661757 18.01557387 22.07421875 20.3984375 C21.41421875 21.3884375 20.75421875 22.3784375 20.07421875 23.3984375 C20.19234697 25.57202259 20.19234697 25.57202259 20.82421875 27.8359375 C21.09492188 28.97869141 21.09492188 28.97869141 21.37109375 30.14453125 C22.08326921 32.42744925 22.80663787 34.3676301 24.07421875 36.3984375 C25.06421875 36.7284375 26.05421875 37.0584375 27.07421875 37.3984375 C32.27198377 45.31728954 36.92565783 55.81974788 36.07421875 65.3984375 C35.41421875 65.3984375 34.75421875 65.3984375 34.07421875 65.3984375 C31.5383638 62.12636659 30.14511924 59.61113898 28.82421875 55.6484375 C27.18394524 50.91792493 24.19128404 47.51974194 20.98828125 43.734375 C19.42256178 41.82355818 18.21229286 40.03859134 17.01171875 37.8984375 C14.39535363 34.52248251 12.22588623 34.06566977 8.07421875 33.3984375 C7.42710937 33.61113281 6.78 33.82382812 6.11328125 34.04296875 C4.07421875 34.3984375 4.07421875 34.3984375 2.00390625 33.28125 C-2.59700577 29.34510854 -4.71466715 26.62051363 -5.5625 20.59375 C-5.88217181 18.08364143 -5.88217181 18.08364143 -7.55078125 14.7734375 C-9.41262145 10.2034661 -9.82067766 6.57974749 -7.92578125 1.9609375 C-5.35620875 -0.04654102 -3.21063412 -0.15430035 0 0 Z " fill="#CF1F28" transform="translate(161.92578125,16.6015625)"/>
<path d="M0 0 C4.66521739 1.51304348 4.66521739 1.51304348 6.375 4 C7.96594793 6.35756847 7.96594793 6.35756847 11.5 6.9375 C15 8 15 8 16.625 10.375 C17.07875 11.24125 17.5325 12.1075 18 13 C18.763125 13.53625 19.52625 14.0725 20.3125 14.625 C25.38383205 19.10664228 28.21560706 25.697763 30.5 32 C32.40566033 35.81132066 34.22927525 36.19005212 38 38 C42.60861612 42.55824874 44.04785522 47.73289781 45 54 C44.34 54 43.68 54 43 54 C42.525625 53.505 42.05125 53.01 41.5625 52.5 C40.00030058 50.65373409 40.00030058 50.65373409 37 51 C37.061875 52.0725 37.12375 53.145 37.1875 54.25 C36.99456691 58.10866187 36.60334924 59.28817788 34 62 C34 61.01 34 60.02 34 59 C33.34 59 32.68 59 32 59 C32.2165625 60.17433594 32.433125 61.34867188 32.65625 62.55859375 C34.57893093 73.4926277 35.38345231 83.90828694 35 95 C34.34 95 33.68 95 33 95 C31.62707087 86.6030674 30.68725081 78.51372785 31 70 C30.34 70 29.68 70 29 70 C28.731875 69.030625 28.46375 68.06125 28.1875 67.0625 C27.795625 66.051875 27.40375 65.04125 27 64 C25.515 63.505 25.515 63.505 24 63 C23.87625 62.195625 23.7525 61.39125 23.625 60.5625 C23.41875 59.716875 23.2125 58.87125 23 58 C22.34 57.67 21.68 57.34 21 57 C19.44796089 53.3241179 18.53465615 50.80989402 20 47 C22.04476933 50.25304212 23.65182433 53.40486488 25 57 C25.556875 58.3921875 25.556875 58.3921875 26.125 59.8125 C26.41375 60.534375 26.7025 61.25625 27 62 C27.66 62 28.32 62 29 62 C27.17966476 52.2363837 24.11612295 38.49220551 16.4375 31.75 C13.15572241 28.0474817 11.93262826 23.96866584 12 19 C12.97155633 17.9723433 13.97118485 16.97032953 15 16 C14.76522801 12.35458155 14.76522801 12.35458155 14 9 C12.906875 8.9175 11.81375 8.835 10.6875 8.75 C7 8 7 8 5.25 6 C4.8375 5.34 4.425 4.68 4 4 C3.01 3.67 2.02 3.34 1 3 C0.67 2.01 0.34 1.02 0 0 Z " fill="#E2958F" transform="translate(169,20)"/>
<path d="M0 0 C1.875 0.1875 1.875 0.1875 4 1 C5.1875 3.5 5.1875 3.5 6 6 C6.33 6.33 6.66 6.66 7 7 C7.04080783 8.99958364 7.04254356 11.00045254 7 13 C6.67 13 6.34 13 6 13 C5.9175 12.21625 5.835 11.4325 5.75 10.625 C5.28770472 7.84757889 5.28770472 7.84757889 2.953125 6.8359375 C2.30859375 6.56007812 1.6640625 6.28421875 1 6 C-2.49899191 15.29079325 -2.46186008 24.44020279 -2.39111328 34.21777344 C-2.37490611 36.89048305 -2.39109371 39.5617088 -2.41015625 42.234375 C-2.40817583 43.94531581 -2.40433634 45.65625571 -2.3984375 47.3671875 C-2.40754654 48.55633255 -2.40754654 48.55633255 -2.4168396 49.76950073 C-2.33156667 56.48681018 -0.21407541 60.07736401 4.4375 64.6875 C5.01371094 65.26886719 5.58992188 65.85023438 6.18359375 66.44921875 C9.36195564 69.16278793 12.09215952 70.23567222 16.2578125 70.34375 C17.04800781 70.37339844 17.83820313 70.40304688 18.65234375 70.43359375 C20.30858813 70.47807425 21.96483821 70.52234311 23.62109375 70.56640625 C24.40871094 70.59605469 25.19632813 70.62570313 26.0078125 70.65625 C27.08506592 70.68428711 27.08506592 70.68428711 28.18408203 70.71289062 C30 71 30 71 32 73 C32.125 75.625 32.125 75.625 32 78 C31.34 78 30.68 78 30 78 C29.896875 78.639375 29.79375 79.27875 29.6875 79.9375 C29.460625 80.618125 29.23375 81.29875 29 82 C28.01 82.33 27.02 82.66 26 83 C26.77479736 85.99152582 26.77479736 85.99152582 28 89 C28.99 89.33 29.98 89.66 31 90 C31 90.66 31 91.32 31 92 C31.99 92.33 32.98 92.66 34 93 C34 93.66 34 94.32 34 95 C31.525 95.495 31.525 95.495 29 96 C28.67 97.65 28.34 99.3 28 101 C25.36638744 100.62376963 23.92779828 99.94785432 21.75 98.375 C19.38889215 95.17063934 19.70131522 92.88290217 20 89 C17.03 89.495 17.03 89.495 14 90 C14.04833984 89.03900391 14.04833984 89.03900391 14.09765625 88.05859375 C14.04000124 83.76009219 13.94586934 81.01547104 10.9296875 77.77734375 C8.67826302 76.05877992 6.41723859 74.47475971 4 73 C4.24363281 72.2575 4.48726562 71.515 4.73828125 70.75 C5.32125674 67.93403322 5.32125674 67.93403322 3.41796875 65.9375 C2.31388672 64.9784375 2.31388672 64.9784375 1.1875 64 C-3.13084178 60.20903093 -4.80996227 57.37656958 -5.2746582 51.56518555 C-5.3245825 44.0574115 -5.3245825 44.0574115 -5.31567383 40.9753418 C-5.31256228 38.73239249 -5.33581664 36.49082857 -5.36132812 34.24804688 C-5.41219499 22.68308963 -4.7102082 10.73058287 0 0 Z " fill="#BCC1B8" transform="translate(106,164)"/>
<path d="M0 0 C0.33 0.66 0.66 1.32 1 2 C1.66 2 2.32 2 3 2 C6.31313816 8.43138584 3.99407781 14.48601247 2 21 C1.67 19.68 1.34 18.36 1 17 C-5.61080634 23.43683775 -6.87886785 28.21079932 -8.5625 37.0625 C-8.89737427 38.80442627 -8.89737427 38.80442627 -9.23901367 40.58154297 C-10.98450053 50.06302236 -11.86314067 59.37007995 -12 69 C-12.99 69.495 -12.99 69.495 -14 70 C-15.38642085 67.22715829 -15.12972076 64.95493489 -15.1328125 61.85546875 C-15.13410156 60.62119141 -15.13539062 59.38691406 -15.13671875 58.11523438 C-15.13285156 56.81908203 -15.12898438 55.52292969 -15.125 54.1875 C-15.12886719 52.90294922 -15.13273437 51.61839844 -15.13671875 50.29492188 C-15.13542969 49.05677734 -15.13414063 47.81863281 -15.1328125 46.54296875 C-15.13168457 45.40883545 -15.13055664 44.27470215 -15.12939453 43.10620117 C-15.01183416 40.28408687 -14.64517322 37.74374809 -14 35 C-16.68263752 36.34131876 -17.22071482 37.938704 -18.625 40.5625 C-19.07101563 41.38878906 -19.51703125 42.21507812 -19.9765625 43.06640625 C-20.31429687 43.70449219 -20.65203125 44.34257812 -21 45 C-22.54367518 40.08728192 -21.59397074 35.8106324 -20 31 C-18.32631099 28.02561554 -16.53201004 25.30651296 -14 23 C-13.01 23 -12.02 23 -11 23 C-10.67 21.68 -10.34 20.36 -10 19 C-9.34 19 -8.68 19 -8 19 C-7.896875 18.113125 -7.79375 17.22625 -7.6875 16.3125 C-6.97546061 12.88176473 -5.8379749 10.94075984 -4 8 C-3.4740625 6.4221875 -3.4740625 6.4221875 -2.9375 4.8125 C-2 2 -2 2 0 0 Z M0 2 C0.33 2.99 0.66 3.98 1 5 C1 4.01 1 3.02 1 2 C0.67 2 0.34 2 0 2 Z " fill="#797A74" transform="translate(99,110)"/>
<path d="M0 0 C3.32909186 0.63948657 5.52978511 2.23566891 8.07421875 4.3984375 C8.07421875 5.0584375 8.07421875 5.7184375 8.07421875 6.3984375 C8.69296875 6.5015625 9.31171875 6.6046875 9.94921875 6.7109375 C12.07421875 7.3984375 12.07421875 7.3984375 14.07421875 10.3984375 C16.63704617 11.12809116 16.63704617 11.12809116 19.07421875 11.3984375 C19.07421875 11.7284375 19.07421875 12.0584375 19.07421875 12.3984375 C16.43421875 12.3984375 13.79421875 12.3984375 11.07421875 12.3984375 C10.95046875 13.4503125 10.82671875 14.5021875 10.69921875 15.5859375 C10.16281093 18.85802521 9.4354184 21.40379826 8.07421875 24.3984375 C6.75421875 24.3984375 5.43421875 24.3984375 4.07421875 24.3984375 C4.07421875 25.0584375 4.07421875 25.7184375 4.07421875 26.3984375 C2.09421875 26.7284375 0.11421875 27.0584375 -1.92578125 27.3984375 C-2.25578125 24.0984375 -2.58578125 20.7984375 -2.92578125 17.3984375 C-3.73015625 17.1509375 -4.53453125 16.9034375 -5.36328125 16.6484375 C-7.92578125 15.3984375 -7.92578125 15.3984375 -8.73828125 13.7109375 C-9.39968816 5.5535856 -9.39968816 5.5535856 -7.92578125 1.9609375 C-5.35620875 -0.04654102 -3.21063412 -0.15430035 0 0 Z " fill="#CD2025" transform="translate(161.92578125,16.6015625)"/>
<path d="M0 0 C3.93449672 0.5828884 6.20683331 2.20683331 9 5 C10.85087064 8.64298348 12 11.90074338 12 16 C11.34 16 10.68 16 10 16 C9.525625 15.505 9.05125 15.01 8.5625 14.5 C7.00030058 12.65373409 7.00030058 12.65373409 4 13 C4.061875 14.0725 4.12375 15.145 4.1875 16.25 C3.99456691 20.10866187 3.60334924 21.28817788 1 24 C1 23.01 1 22.02 1 21 C0.34 21 -0.32 21 -1 21 C-0.7834375 22.17433594 -0.566875 23.34867188 -0.34375 24.55859375 C1.57893093 35.4926277 2.38345231 45.90828694 2 57 C1.34 57 0.68 57 0 57 C-1.37292913 48.6030674 -2.31274919 40.51372785 -2 32 C-2.66 32 -3.32 32 -4 32 C-4.4021875 30.5459375 -4.4021875 30.5459375 -4.8125 29.0625 C-5.204375 28.051875 -5.59625 27.04125 -6 26 C-6.99 25.67 -7.98 25.34 -9 25 C-9.12375 24.195625 -9.2475 23.39125 -9.375 22.5625 C-9.58125 21.716875 -9.7875 20.87125 -10 20 C-10.66 19.67 -11.32 19.34 -12 19 C-13.55203911 15.3241179 -14.46534385 12.80989402 -13 9 C-10.95523067 12.25304212 -9.34817567 15.40486488 -8 19 C-7.62875 19.928125 -7.2575 20.85625 -6.875 21.8125 C-6.58625 22.534375 -6.2975 23.25625 -6 24 C-5.34 24 -4.68 24 -4 24 C-5.15058556 18.60204011 -6.42421759 13.29012667 -8 8 C-7.01 8.33 -6.02 8.66 -5 9 C-4.34 12.3 -3.68 15.6 -3 19 C-2.34 19 -1.68 19 -1 19 C-1.33 15.04 -1.66 11.08 -2 7 C-1.01 8.485 -1.01 8.485 0 10 C2.0399719 8.63676257 2.0399719 8.63676257 4 7 C4 6.34 4 5.68 4 5 C3.34 5 2.68 5 2 5 C1.34 3.35 0.68 1.7 0 0 Z " fill="#DF9C95" transform="translate(202,58)"/>
<path d="M0 0 C0.66 0.33 1.32 0.66 2 1 C1.236875 1.825 0.47375 2.65 -0.3125 3.5 C-2.84640262 6.51348305 -4.1265162 9.44259947 -5.32421875 13.16796875 C-6 15 -6 15 -8 18 C-7.95662174 20.65185765 -7.8177411 23.18136983 -7.5625 25.8125 C-7.10668955 30.70907757 -6.95712622 35.15101752 -8 40 C-9.67110042 37.03821227 -10.32682752 34.62928808 -10.625 31.25 C-10.69976562 30.45078125 -10.77453125 29.6515625 -10.8515625 28.828125 C-10.90054688 28.22484375 -10.94953125 27.6215625 -11 27 C-13.14670555 27.80487204 -13.14670555 27.80487204 -13.78125 29.8125 C-14.0184375 30.534375 -14.255625 31.25625 -14.5 32 C-15.21875 34.1875 -15.21875 34.1875 -16 36 C-16.99 36.495 -16.99 36.495 -18 37 C-18.91280138 39.57437581 -18.91280138 39.57437581 -19.625 42.5625 C-19.88539062 43.57441406 -20.14578125 44.58632812 -20.4140625 45.62890625 C-20.60742188 46.41136719 -20.80078125 47.19382813 -21 48 C-21.99 48 -22.98 48 -24 48 C-23.34973621 41.98505993 -21.11220807 36.61847346 -19 31 C-17.1671685 25.71713275 -15.58899089 20.36019594 -14 15 C-15.98 16.32 -17.96 17.64 -20 19 C-18.63266692 13.07488999 -15.25804257 8.26752596 -11 4 C-10.01 4 -9.02 4 -8 4 C-8 5.65 -8 7.3 -8 9 C-5.47411298 6.63707344 -4.11179163 5.33537489 -3 2 C-2.01 1.34 -1.02 0.68 0 0 Z " fill="#7C7B76" transform="translate(126,117)"/>
<path d="M0 0 C2.62527189 -0.05382106 5.24944713 -0.09358313 7.875 -0.125 C8.62136719 -0.14175781 9.36773437 -0.15851563 10.13671875 -0.17578125 C12.09194461 -0.1933959 14.04742021 -0.10320189 16 0 C18 2 18 2 18.125 4.625 C18.08375 5.40875 18.0425 6.1925 18 7 C17.34 7 16.68 7 16 7 C15.8453125 7.9590625 15.8453125 7.9590625 15.6875 8.9375 C15.460625 9.618125 15.23375 10.29875 15 11 C14.01 11.33 13.02 11.66 12 12 C12.77479736 14.99152582 12.77479736 14.99152582 14 18 C14.99 18.33 15.98 18.66 17 19 C17 19.66 17 20.32 17 21 C17.99 21.33 18.98 21.66 20 22 C20 22.66 20 23.32 20 24 C18.35 24.33 16.7 24.66 15 25 C14.67 26.65 14.34 28.3 14 30 C11.36638744 29.62376963 9.92779828 28.94785432 7.75 27.375 C5.38889215 24.17063934 5.70131522 21.88290217 6 18 C4.02 18.33 2.04 18.66 0 19 C0 15.7 0 12.4 0 9 C1.24716797 9.05220703 1.24716797 9.05220703 2.51953125 9.10546875 C3.60621094 9.13253906 4.69289063 9.15960938 5.8125 9.1875 C6.89144531 9.22230469 7.97039062 9.25710937 9.08203125 9.29296875 C11.9658349 9.24110535 11.9658349 9.24110535 13.82421875 7.73828125 C15.11600806 5.82849307 15.61016697 4.2610316 16 2 C15.26394531 2.01160156 14.52789062 2.02320313 13.76953125 2.03515625 C12.79371094 2.04417969 11.81789062 2.05320313 10.8125 2.0625 C9.36810547 2.07990234 9.36810547 2.07990234 7.89453125 2.09765625 C5.14423487 2.00486622 2.67520409 1.62111685 0 1 C0 0.67 0 0.34 0 0 Z " fill="#C4CAC0" transform="translate(120,235)"/>
<path d="M0 0 C0.97868964 3.06610462 0.98040257 4.92832604 0.0625 8 C-0.81271705 10.96762337 -1 12.76692848 -1 16 C-0.34 16 0.32 16 1 16 C1.061875 14.9275 1.12375 13.855 1.1875 12.75 C2 9 2 9 4.5625 6.5625 C5.366875 6.046875 6.17125 5.53125 7 5 C6.67 6.65 6.34 8.3 6 10 C5.34 10 4.68 10 4 10 C3.731875 11.010625 3.46375 12.02125 3.1875 13.0625 C2.46177865 15.66472941 1.64422969 17.72577143 0.4375 20.1875 C-1.40061276 24.28438814 -1.42117599 28.37540862 -1.6875 32.80859375 C-2.10640303 37.08664089 -3.18374758 41.07755202 -4.30078125 45.21875 C-5.20381414 48.81070204 -5.64588758 52.31723088 -6 56 C-6.66 55.67 -7.32 55.34 -8 55 C-8.45544231 35.77799889 -8.71998011 17.57782552 0 0 Z " fill="#5A5C5B" transform="translate(99,131)"/>
<path d="M0 0 C4.48738548 1.03555049 6.4384054 3.29010437 9 7 C10.90765451 10.14762994 11 11.09366904 11 15 C9.02 15 7.04 15 5 15 C5 16.65 5 18.3 5 20 C4.01 19.67 3.02 19.34 2 19 C1.67 23.29 1.34 27.58 1 32 C-3.46135542 27.53864458 -3.27333294 20.27273735 -3.32226562 14.28515625 C-3.31904297 13.40730469 -3.31582031 12.52945313 -3.3125 11.625 C-3.32861328 10.72394531 -3.34472656 9.82289062 -3.36132812 8.89453125 C-3.36197266 8.03472656 -3.36261719 7.17492187 -3.36328125 6.2890625 C-3.36626221 5.51256348 -3.36924316 4.73606445 -3.37231445 3.93603516 C-3.24945068 3.29714355 -3.12658691 2.65825195 -3 2 C-2.01 1.34 -1.02 0.68 0 0 Z " fill="#DE9591" transform="translate(175,62)"/>
<path d="M0 0 C3 3.46153846 3 3.46153846 3 6 C3.99 6.33 4.98 6.66 6 7 C11.19776502 14.91885204 15.85143908 25.42131038 15 35 C14.34 35 13.68 35 13 35 C10.46414505 31.72792909 9.07090049 29.21270148 7.75 25.25 C6.12253297 20.5393871 3.14042677 17.14947759 -0.0625 13.39453125 C-3.26305843 9.43900238 -5 7.1880975 -5 2 C-2 0 -2 0 0 0 Z " fill="#D1111E" transform="translate(183,47)"/>
<path d="M0 0 C2.10212211 3.15318317 2.25546908 3.93161725 2.265625 7.53515625 C2.26820312 8.42783203 2.27078125 9.32050781 2.2734375 10.24023438 C2.26570313 11.17158203 2.25796875 12.10292969 2.25 13.0625 C2.25773437 13.96677734 2.26546875 14.87105469 2.2734375 15.80273438 C2.25589411 21.93853619 1.92798605 28.12778897 0 34 C-0.99 34.495 -0.99 34.495 -2 35 C-2.66 29.72 -3.32 24.44 -4 19 C-4.66 19.99 -5.32 20.98 -6 22 C-7.32 22 -8.64 22 -10 22 C-10.66 22.33 -11.32 22.66 -12 23 C-10.27068234 15.99102311 -8.16032658 9.49711809 -5 3 C-4.34 3 -3.68 3 -3 3 C-2.34 5.97 -1.68 8.94 -1 12 C0.26237731 9.47524538 0.09856404 7.68799534 0.0625 4.875 C0.05347656 3.96492187 0.04445313 3.05484375 0.03515625 2.1171875 C0.02355469 1.41851562 0.01195313 0.71984375 0 0 Z " fill="#92928A" transform="translate(118,141)"/>
<path d="M0 0 C1.98 0.99 1.98 0.99 4 2 C4 2.66 4 3.32 4 4 C7.04386724 4.08226668 9.07175348 3.97608217 12 3 C18.02420627 5.00806876 20.54735871 9.01500667 24 14 C25.32481269 15.67344761 26.65407903 17.34348188 28 19 C27.67 19.66 27.34 20.32 27 21 C24 19 24 19 22.625 16.5625 C20.77287538 13.64184195 19.0411417 12.56166736 16 11 C16.66 12.98 17.32 14.96 18 17 C16.35 17.33 14.7 17.66 13 18 C12.9707517 21.20831391 12.95311811 24.41659307 12.9375 27.625 C12.92912109 28.52863281 12.92074219 29.43226562 12.91210938 30.36328125 C12.89508105 35.02904289 13.03170577 39.41013285 14 44 C10.83571212 40.83571212 10.86144382 37.94448799 10.75390625 33.66796875 C10.72103516 32.62189453 10.68816406 31.57582031 10.65429688 30.49804688 C10.59342657 28.30283069 10.53609603 26.1075133 10.48242188 23.91210938 C10.30962826 18.60115086 10.1373384 13.95827896 8 9 C7.01 9 6.02 9 5 9 C2.34105893 6.18465063 0.57363911 3.87206399 0 0 Z " fill="#DFA1A0" transform="translate(160,46)"/>
<path d="M0 0 C3.78520613 0.54074373 5.59177555 2.07572746 8 5 C8 5.99 8 6.98 8 8 C8.61875 8.226875 9.2375 8.45375 9.875 8.6875 C12.69339387 10.42827269 13.11944786 11.84468818 14 15 C14.125 17.8125 14.125 17.8125 14 20 C14.99 20.33 15.98 20.66 17 21 C17 22.65 17 24.3 17 26 C17.66 26 18.32 26 19 26 C22.44419134 36.37357631 22.44419134 36.37357631 22 42 C20.68 42 19.36 42 18 42 C18 39.69 18 37.38 18 35 C17.01 35 16.02 35 15 35 C15.020625 33.865625 15.04125 32.73125 15.0625 31.5625 C15.41577477 28.18424326 15.41577477 28.18424326 14 27 C13.95936168 25.33382885 13.957279 23.66611905 14 22 C13.01 22 12.02 22 11 22 C10.79246094 21.38253906 10.58492187 20.76507813 10.37109375 20.12890625 C8.20200078 14.16616951 5.53928416 9.71249069 1.390625 4.91015625 C0 3 0 3 0 0 Z " fill="#EAC0B7" transform="translate(176,57)"/>
<path d="M0 0 C0.99 0 1.98 0 3 0 C3.69965443 1.26418246 4.38434763 2.53665402 5.0625 3.8125 C5.44535156 4.52019531 5.82820312 5.22789063 6.22265625 5.95703125 C7 8 7 8 6 11 C5.01 10.01 4.02 9.02 3 8 C2.97494385 8.78536133 2.9498877 9.57072266 2.92407227 10.37988281 C2.80667913 14.00336428 2.68461408 17.62667468 2.5625 21.25 C2.52318359 22.48492187 2.48386719 23.71984375 2.44335938 24.9921875 C1.70444915 46.59110169 1.70444915 46.59110169 0 50 C-0.66 50 -1.32 50 -2 50 C-2.04898438 50.79664063 -2.09796875 51.59328125 -2.1484375 52.4140625 C-2.89103691 62.93848858 -2.89103691 62.93848858 -5 68 C-5.66 68 -6.32 68 -7 68 C-6.86722656 67.40832031 -6.73445312 66.81664062 -6.59765625 66.20703125 C-6.23432442 64.5813202 -5.87374061 62.95499305 -5.515625 61.328125 C-5.12630359 59.57027986 -4.72279272 57.81556891 -4.3125 56.0625 C-3.7886866 53.94249596 -3.7886866 53.94249596 -5 52 C-4.34 52 -3.68 52 -3 52 C-3.495 50.515 -3.495 50.515 -4 49 C-3.58665049 47.12426729 -3.09751353 45.26493656 -2.5703125 43.41796875 C-0.51733838 35.00404468 -0.70093695 26.90663413 -0.875 18.3125 C-0.91015745 15.99523867 -0.94084434 13.67802913 -0.96633911 11.36064148 C-0.98323306 9.93266377 -1.00630622 8.50474224 -1.03634644 7.07698059 C-1.11055097 2.22110193 -1.11055097 2.22110193 0 0 Z " fill="#E1C2BA" transform="translate(211,85)"/>
<path d="M0 0 C0.33 0.66 0.66 1.32 1 2 C1.66 2 2.32 2 3 2 C6.31313816 8.43138584 3.99407781 14.48601247 2 21 C1.67 19.68 1.34 18.36 1 17 C0.21625 17.66 -0.5675 18.32 -1.375 19 C-4 21 -4 21 -6 21 C-6 21.66 -6 22.32 -6 23 C-6.99 23.33 -7.98 23.66 -9 24 C-8.60859872 18.52038204 -7.60485814 14.70358461 -4.98046875 9.890625 C-3.83928078 7.81038384 -3.83928078 7.81038384 -2.875 4.625 C-2 2 -2 2 0 0 Z M0 2 C0.33 2.99 0.66 3.98 1 5 C1 4.01 1 3.02 1 2 C0.67 2 0.34 2 0 2 Z " fill="#616260" transform="translate(99,110)"/>
<path d="M0 0 C1.74627478 2.61941217 2.38722388 4.03824877 3 7 C3.66 7 4.32 7 5 7 C5.33 5.35 5.66 3.7 6 2 C6.99 2.33 7.98 2.66 9 3 C10.33599181 6.00598158 11.14345053 8.09147996 10.625 11.375 C10.41875 11.91125 10.2125 12.4475 10 13 C10 12.34 10 11.68 10 11 C7.48916886 12.25541557 7.12874554 13.50063488 6 16 C5.01 16 4.02 16 3 16 C2.814375 17.299375 2.814375 17.299375 2.625 18.625 C2.01941879 21.89513853 1.11693965 24.87256899 0 28 C-0.33 28 -0.66 28 -1 28 C-2.38529821 22.54538831 -3.2396943 17.63281599 -3 12 C-2.67 12 -2.34 12 -2 12 C-1.93941406 11.21753906 -1.87882813 10.43507813 -1.81640625 9.62890625 C-1.73261719 8.61699219 -1.64882812 7.60507813 -1.5625 6.5625 C-1.48128906 5.55316406 -1.40007812 4.54382813 -1.31640625 3.50390625 C-1 1 -1 1 0 0 Z " fill="#E5B4AC" transform="translate(177,80)"/>
<path d="M0 0 C3.0772508 2.05150054 3.7685439 2.67382905 5 6 C5.22705078 8.65722656 5.22705078 8.65722656 5.1953125 11.640625 C5.18564453 13.24550781 5.18564453 13.24550781 5.17578125 14.8828125 C5.15902344 15.99398437 5.14226562 17.10515625 5.125 18.25 C5.11597656 19.37664062 5.10695312 20.50328125 5.09765625 21.6640625 C5.07410658 24.44292365 5.0412168 27.2213539 5 30 C3.68 30 2.36 30 1 30 C0.67 31.32 0.34 32.64 0 34 C-0.66 32.68 -1.32 31.36 -2 30 C-2.66 30.99 -3.32 31.98 -4 33 C-4 30.03 -4 27.06 -4 24 C-3.34 24 -2.68 24 -2 24 C-2 19.38 -2 14.76 -2 10 C-0.1155829 13.7688342 0.33429462 15.68012475 0.625 19.75 C0.69976562 20.73484375 0.77453125 21.7196875 0.8515625 22.734375 C0.90054688 23.48203125 0.94953125 24.2296875 1 25 C1.14236956 12.46827783 1.14236956 12.46827783 0 0 Z " fill="#E1ABA5" transform="translate(206,91)"/>
<path d="M0 0 C-0.14824219 0.72574219 -0.29648438 1.45148438 -0.44921875 2.19921875 C-0.7888627 3.92634435 -1.108372 5.65774291 -1.39453125 7.39453125 C-2.40729387 13.25341035 -4.112173 17.8019114 -7 23 C-7.66 23 -8.32 23 -9 23 C-9.19335938 23.78246094 -9.38671875 24.56492188 -9.5859375 25.37109375 C-9.84632812 26.38300781 -10.10671875 27.39492187 -10.375 28.4375 C-10.63023438 29.44683594 -10.88546875 30.45617187 -11.1484375 31.49609375 C-12 34 -12 34 -14 35 C-14.21035801 29.84622869 -13.52831097 25.9066826 -12 21 C-11.2464312 17.8285634 -10.50674371 14.6545404 -9.78125 11.4765625 C-9.5234375 10.65929687 -9.265625 9.84203125 -9 9 C-8.34 8.67 -7.68 8.34 -7 8 C-6.690625 7.21625 -6.38125 6.4325 -6.0625 5.625 C-4.79051807 2.48245641 -3.63224714 0 0 0 Z " fill="#8E8E87" transform="translate(112,132)"/>
<path d="M0 0 C0.33 0 0.66 0 1 0 C2.1519281 6.27329095 2.29616797 12.38610482 2.375 18.75 C2.43107422 20.44382813 2.43107422 20.44382813 2.48828125 22.171875 C2.58226587 31.194399 0.60853846 37.47368297 -5.02734375 44.54296875 C-6.96417235 46.21046331 -8.7800112 47.72703023 -11 49 C-13.9375 48.75 -13.9375 48.75 -17 48 C-20.17370361 48.59810034 -23.17003583 49.43219985 -26 51 C-27.29008111 53.02018252 -27.29008111 53.02018252 -28 55 C-28.66 54.67 -29.32 54.34 -30 54 C-30 52.35 -30 50.7 -30 49 C-26.02615313 47.4546151 -22.26311619 46.74090615 -18.0625 46.1875 C-12.67405819 45.31279631 -8.69553769 44.14973785 -5 40 C-3.73076105 37.93651336 -2.68753551 35.89464736 -1.7265625 33.671875 C-1 32 -1 32 0 31 C0.08790975 28.70848583 0.10694038 26.41427476 0.09765625 24.12109375 C0.0962413 23.4344313 0.09482635 22.74776886 0.09336853 22.04029846 C0.08775479 19.83932199 0.07520007 17.63844591 0.0625 15.4375 C0.05748676 13.94856917 0.05292355 12.45963676 0.04882812 10.97070312 C0.03778093 7.31376925 0.02050713 3.65689442 0 0 Z " fill="#EBDFD5" transform="translate(194,115)"/>
<path d="M0 0 C2.63955332 1.31977666 2.8610609 2.56281557 4 5.25 C4.51820313 6.46236328 4.51820313 6.46236328 5.046875 7.69921875 C6.05183279 10.12512096 7.05206352 12.5511641 8 15 C8.99 14.67 9.98 14.34 11 14 C11.65601744 15.51646821 12.2992664 17.03846175 12.9375 18.5625 C13.29714844 19.40941406 13.65679687 20.25632812 14.02734375 21.12890625 C16.12110114 27.30927446 16.13428728 33.49321127 16.0625 39.9375 C16.05798828 40.71673828 16.05347656 41.49597656 16.04882812 42.29882812 C16.03716908 44.19925268 16.01923877 46.09963706 16 48 C15.34 48 14.68 48 14 48 C12.62707087 39.6030674 11.68725081 31.51372785 12 23 C11.34 23 10.68 23 10 23 C9.5978125 21.5459375 9.5978125 21.5459375 9.1875 20.0625 C8.795625 19.051875 8.40375 18.04125 8 17 C7.01 16.67 6.02 16.34 5 16 C4.87625 15.195625 4.7525 14.39125 4.625 13.5625 C4.41875 12.716875 4.2125 11.87125 4 11 C3.34 10.67 2.68 10.34 2 10 C0.55487596 6.3871899 0 3.93312158 0 0 Z " fill="#D66969" transform="translate(188,67)"/>
<path d="M0 0 C0.94314127 3.41610225 1.08065117 6.45134864 1 10 C1.99 8.35 2.98 6.7 4 5 C4.33 5.66 4.66 6.32 5 7 C5.66 7 6.32 7 7 7 C8.3300103 15.97756951 8.08788039 24.94831966 8 34 C7.67 34 7.34 34 7 34 C7 28.39 7 22.78 7 17 C1.39277666 19.64856825 1.39277666 19.64856825 -2 22 C-2.30071865 14.44862068 -1.42625566 7.41143564 0 0 Z " fill="#B8B9AE" transform="translate(75,151)"/>
<path d="M0 0 C0.99 0.33 1.98 0.66 3 1 C3.33 4.3 3.66 7.6 4 11 C5.98 10.67 7.96 10.34 10 10 C10 9.34 10 8.68 10 8 C12.59515537 8.35069667 14.52570246 8.66623506 16.6875 10.1875 C18.44931529 12.62048302 19.1714857 15.13206588 20 18 C19.0925 17.814375 18.185 17.62875 17.25 17.4375 C14.1803189 16.78253579 14.1803189 16.78253579 12.0546875 17.64453125 C10 18 10 18 7.9296875 16.953125 C2.57312591 12.51308536 0.97339131 9.05942887 0.15625 2.16015625 C0.1046875 1.44730469 0.053125 0.73445313 0 0 Z " fill="#D24548" transform="translate(156,33)"/>
<path d="M0 0 C1.9375 0.375 1.9375 0.375 4 1 C4.33 1.66 4.66 2.32 5 3 C7.30965848 4.05352843 9.6429774 5.05719096 12 6 C12 6.66 12 7.32 12 8 C12.66 8 13.32 8 14 8 C14.95024979 11.69541586 14.95024979 14.30458414 14 18 C11.36638744 17.62376963 9.92779828 16.94785432 7.75 15.375 C5.38889215 12.17063934 5.70131522 9.88290217 6 6 C4.02 6.33 2.04 6.66 0 7 C0 4.69 0 2.38 0 0 Z " fill="#C4CCC2" transform="translate(120,247)"/>
<path d="M0 0 C0.99 0 1.98 0 3 0 C3.98142649 1.69211464 4.95890902 3.38666718 5.9140625 5.09375 C6.79062745 6.63246834 7.72988255 8.13537285 8.6875 9.625 C10.74414246 14.91350918 10.75775425 20.36987467 11 26 C10.34 26 9.68 26 9 26 C7.68373308 22.38026598 7 19.90432869 7 16 C6.01 15.67 5.02 15.34 4 15 C0.87432668 10.19127181 0.35956858 5.57951246 0 0 Z " fill="#E6ACA7" transform="translate(190,51)"/>
<path d="M0 0 C0.97868964 3.06610462 0.98040257 4.92832604 0.0625 8 C-0.81271705 10.96762337 -1 12.76692848 -1 16 C-0.34 16 0.32 16 1 16 C1.061875 14.9275 1.12375 13.855 1.1875 12.75 C2 9 2 9 4.5625 6.5625 C5.366875 6.046875 6.17125 5.53125 7 5 C6.67 6.65 6.34 8.3 6 10 C5.34 10 4.68 10 4 10 C3.7525 10.928125 3.505 11.85625 3.25 12.8125 C2.27053931 16.19545998 1.19707462 19.54082861 0.0625 22.875 C-0.25589844 23.82117188 -0.57429688 24.76734375 -0.90234375 25.7421875 C-1.44568359 26.85980469 -1.44568359 26.85980469 -2 28 C-2.99 28.33 -3.98 28.66 -5 29 C-5.34345886 19.03969299 -4.90253383 8.85142409 0 0 Z " fill="#313439" transform="translate(99,131)"/>
<path d="M0 0 C0.33 0 0.66 0 1 0 C1 1.98 1 3.96 1 6 C2.65 6 4.3 6 6 6 C6 7.32 6 8.64 6 10 C5.01 10 4.02 10 3 10 C3 10.66 3 11.32 3 12 C4.65 12 6.3 12 8 12 C8 13.65 8 15.3 8 17 C6.125 18.0625 6.125 18.0625 4 19 C3.34 18.67 2.68 18.34 2 18 C2.0825 19.258125 2.165 20.51625 2.25 21.8125 C2.265625 24.01953125 2.265625 24.01953125 2 26 C0 28 0 28 -2 29 C-1.505 27.515 -1.505 27.515 -1 26 C-0.85013589 24.0093556 -0.75171962 22.01464609 -0.68359375 20.01953125 C-0.62075195 18.27446289 -0.62075195 18.27446289 -0.55664062 16.49414062 C-0.51732422 15.27919922 -0.47800781 14.06425781 -0.4375 12.8125 C-0.39431641 11.58595703 -0.35113281 10.35941406 -0.30664062 9.09570312 C-0.2004691 6.06391619 -0.09842048 3.03204685 0 0 Z " fill="#E4BDB6" transform="translate(196,121)"/>
<path d="M0 0 C4.66521739 1.51304348 4.66521739 1.51304348 6.375 4 C7.95015738 6.36355582 7.95015738 6.36355582 11.4375 6.75 C15.30389154 8.10662861 15.62830595 8.38949152 17.375 11.8125 C18.648024 14.82295589 19.71081448 17.72256413 20 21 C19.67 21.66 19.34 22.32 19 23 C18.01 23 17.02 23 16 23 C16.66 26.3 17.32 29.6 18 33 C13.70643053 29.85138239 13.06718007 26.28443878 12.00390625 21.33984375 C12 19 12 19 13.484375 17.421875 C13.98453125 16.95265625 14.4846875 16.4834375 15 16 C14.76522801 12.35458155 14.76522801 12.35458155 14 9 C12.906875 8.9175 11.81375 8.835 10.6875 8.75 C7 8 7 8 5.25 6 C4.8375 5.34 4.425 4.68 4 4 C3.01 3.67 2.02 3.34 1 3 C0.67 2.01 0.34 1.02 0 0 Z " fill="#D86968" transform="translate(169,20)"/>
<path d="M0 0 C0.66 0 1.32 0 2 0 C2.74330324 2.92861476 3.47846231 5.85870438 4.19921875 8.79296875 C4.65416698 10.61498093 5.12487542 12.43365827 5.64453125 14.23828125 C7.00509213 19.27920825 7.20662702 24.1818081 7.25 29.375 C7.25926514 30.07786133 7.26853027 30.78072266 7.27807617 31.50488281 C7.25518254 35.21634422 7.11072773 36.8339084 5 40 C4.94392578 38.72769531 4.94392578 38.72769531 4.88671875 37.4296875 C4.46042375 29.82324737 3.42167184 22.84942879 1.69921875 15.421875 C0.65534898 10.31332799 0.2761758 5.19972377 0 0 Z " fill="#E6B2A8" transform="translate(201,79)"/>
<path d="M0 0 C0.86367187 0.02835937 1.72734375 0.05671875 2.6171875 0.0859375 C3.48601562 0.09882812 4.35484375 0.11171875 5.25 0.125 C7.4921875 0.4609375 7.4921875 0.4609375 9.4921875 2.4609375 C10.61951002 9.15933063 8.92868606 14.73043401 6.44921875 20.8984375 C5.24484865 24.1231999 4.79579351 27.04536993 4.4921875 30.4609375 C4.1621875 30.4609375 3.8321875 30.4609375 3.4921875 30.4609375 C3.16931754 22.38918862 3.16931754 22.38918862 4.4921875 18.5859375 C6.00590332 13.85557558 5.61297128 9.41307237 5.4921875 4.4609375 C1.5321875 4.4609375 -2.4278125 4.4609375 -6.5078125 4.4609375 C-2.5078125 0.4609375 -2.5078125 0.4609375 0 0 Z " fill="#888A85" transform="translate(124.5078125,86.5390625)"/>
<path d="M0 0 C2.38564077 0.57584432 4.66682784 1.22227595 7 2 C7 2.66 7 3.32 7 4 C9.31 4 11.62 4 14 4 C14.33 4.66 14.66 5.32 15 6 C16.64363134 6.72159424 18.31050386 7.39351421 20 8 C19.67 8.66 19.34 9.32 19 10 C14.00867919 10.58776301 9.74001817 10.99181036 5.265625 8.44140625 C3.07751629 6.70973423 1.00452117 4.94017852 -1 3 C-0.67 2.01 -0.34 1.02 0 0 Z " fill="#A8ABA5" transform="translate(111,234)"/>
<path d="M0 0 C-0.63450333 5.01335964 -2.10811073 9.33220581 -3.9375 14 C-4.46847886 15.37460221 -4.99844343 16.7495967 -5.52734375 18.125 C-5.90415283 19.10339844 -5.90415283 19.10339844 -6.28857422 20.1015625 C-7.26626787 22.71053499 -8.14269066 25.34938174 -9 28 C-9.33 28 -9.66 28 -10 28 C-10.35048637 17.58276611 -9.99211254 9.83988434 -3.4375 1.43359375 C-2 0 -2 0 0 0 Z " fill="#A9AA9E" transform="translate(100,127)"/>
<path d="M0 0 C4.95526323 2.90480948 6.18147508 7.35553487 7.8125 12.625 C8.04438428 15.56220093 7.2739939 17.37707139 6 20 C5.34 20 4.68 20 4 20 C4.33 21.65 4.66 23.3 5 25 C2.22165316 23.61082658 2.00357014 22.04236447 0.875 19.1875 C0.52179688 18.31480469 0.16859375 17.44210938 -0.1953125 16.54296875 C-1 14 -1 14 -1 10 C-0.01 10 0.98 10 2 10 C2.17942163 6.05272412 2.09350689 3.4019487 0 0 Z " fill="#E78E88" transform="translate(186,33)"/>
<path d="M0 0 C1.92578125 0.34375 1.92578125 0.34375 4 1 C5.1875 3.5 5.1875 3.5 6 6 C6.33 6.33 6.66 6.66 7 7 C7.04080783 8.99958364 7.04254356 11.00045254 7 13 C6.67 13 6.34 13 6 13 C5.9175 12.21625 5.835 11.4325 5.75 10.625 C5.28770472 7.84757889 5.28770472 7.84757889 2.953125 6.8359375 C2.30859375 6.56007812 1.6640625 6.28421875 1 6 C-2.10731391 15.0314937 -2.53600914 23.75474163 -2.6875 33.1875 C-2.7207578 34.63088866 -2.7552549 36.07424931 -2.79101562 37.51757812 C-2.87493438 41.01151274 -2.94218992 44.50552425 -3 48 C-3.33 48 -3.66 48 -4 48 C-4.10020906 43.25355931 -4.17208723 38.50775797 -4.21972656 33.76049805 C-4.23962238 32.15166474 -4.26674929 30.54290158 -4.30175781 28.93432617 C-4.52332948 18.47809855 -3.88016701 9.85461807 0 0 Z " fill="#D2D3C9" transform="translate(106,164)"/>
<path d="M0 0 C1.28961193 2.57922387 0.79211692 3.40291211 0.00390625 6.1328125 C-0.22490234 6.93847656 -0.45371094 7.74414062 -0.68945312 8.57421875 C-0.93630859 9.41597656 -1.18316406 10.25773438 -1.4375 11.125 C-1.68048828 11.97449219 -1.92347656 12.82398438 -2.17382812 13.69921875 C-2.7761431 15.80141612 -3.38510525 17.90145431 -4 20 C-4.66 20 -5.32 20 -6 20 C-6.33 23.63 -6.66 27.26 -7 31 C-7.66 30.67 -8.32 30.34 -9 30 C-8.91838805 26.6448921 -8.80561448 23.29150558 -8.6875 19.9375 C-8.66494141 18.99455078 -8.64238281 18.05160156 -8.61914062 17.08007812 C-8.39899472 11.33627141 -7.6479756 7.11847294 -5 2 C-3.53273202 5.81489674 -4.56663581 8.29011622 -6 12 C-5.01 12 -4.02 12 -3 12 C-3.061875 11.319375 -3.12375 10.63875 -3.1875 9.9375 C-2.94131737 6.08063875 -1.64197838 3.48920406 0 0 Z " fill="#8B8B83" transform="translate(108,153)"/>
<path d="M0 0 C1.35068317 2.70136634 0.73985317 4.13563046 0.125 7.0625 C-0.05804688 7.96097656 -0.24109375 8.85945312 -0.4296875 9.78515625 C-1 12 -1 12 -2 13 C-2.14636054 16.36629251 -2.07193479 18.78419562 -1 22 C-1.17101779 24.55671594 -1.41434204 27.0282824 -1.75 29.5625 C-1.86214844 30.59020508 -1.86214844 30.59020508 -1.9765625 31.63867188 C-2.234375 33.62890625 -2.234375 33.62890625 -3 37 C-3.99 37.66 -4.98 38.32 -6 39 C-5.7278733 33.46482713 -5.43781308 27.93113556 -5.12792969 22.39794922 C-5.02037683 20.38194891 -4.93354504 18.36485821 -4.8515625 16.34765625 C-4.50328113 9.90445086 -3.31609041 5.56247423 0 0 Z " fill="#8B8D83" transform="translate(101,147)"/>
<path d="M0 0 C0.66 0 1.32 0 2 0 C2 1.65 2 3.3 2 5 C1.34 5 0.68 5 0 5 C0 10.61 0 16.22 0 22 C-0.33 22 -0.66 22 -1 22 C-1 19.03 -1 16.06 -1 13 C-1.99 12.67 -2.98 12.34 -4 12 C-4.474375 12.825 -4.94875 13.65 -5.4375 14.5 C-6.2109375 15.7375 -6.2109375 15.7375 -7 17 C-7.33 17 -7.66 17 -8 17 C-7.88623383 14.87436897 -7.75864369 12.7494739 -7.625 10.625 C-7.55539063 9.44164062 -7.48578125 8.25828125 -7.4140625 7.0390625 C-7 4 -7 4 -5 2 C-5 3.98 -5 5.96 -5 8 C-4.66226563 7.4225 -4.32453125 6.845 -3.9765625 6.25 C-3.53054687 5.5075 -3.08453125 4.765 -2.625 4 C-2.18414062 3.2575 -1.74328125 2.515 -1.2890625 1.75 C-0.86367187 1.1725 -0.43828125 0.595 0 0 Z " fill="#A3A499" transform="translate(83,145)"/>
<path d="M0 0 C3.78520613 0.54074373 5.59177555 2.07572746 8 5 C8 5.99 8 6.98 8 8 C8.64453125 8.22429687 9.2890625 8.44859375 9.953125 8.6796875 C12 10 12 10 12.609375 12.3828125 C12.65578125 13.28773437 12.7021875 14.19265625 12.75 15.125 C12.80671875 16.03507812 12.8634375 16.94515625 12.921875 17.8828125 C12.96054688 18.93082031 12.96054688 18.93082031 13 20 C12.67 19.34 12.34 18.68 12 18 C11.34 18 10.68 18 10 18 C8.88671875 16.49609375 8.88671875 16.49609375 7.6875 14.4375 C5.97760564 11.56732019 4.1955755 8.85732766 2.1875 6.1875 C0 3 0 3 0 0 Z " fill="#EDD2C9" transform="translate(176,57)"/>
<path d="M0 0 C2 2 2 2 2.125 5.125 C2.08375 6.07375 2.0425 7.0225 2 8 C2.66 8 3.32 8 4 8 C4 6.02 4 4.04 4 2 C4.33 2 4.66 2 5 2 C5.02692484 4.29160319 5.04636124 6.58329546 5.0625 8.875 C5.07410156 10.15117187 5.08570312 11.42734375 5.09765625 12.7421875 C5 16 5 16 4 18 C2.68 18 1.36 18 0 18 C-1.21293283 12.39018566 -1.33111384 6.71658302 -1 1 C-0.67 0.67 -0.34 0.34 0 0 Z " fill="#929489" transform="translate(96,189)"/>
<path d="M0 0 C2 2 2 2 3 5 C4.65 5.33 6.3 5.66 8 6 C7.608125 6.69609375 7.21625 7.3921875 6.8125 8.109375 C5.67992479 11.04755061 5.67992479 11.04755061 7.125 14.015625 C7.74375 15.08296875 8.3625 16.1503125 9 17.25 C9.65097656 18.38308594 10.30195312 19.51617187 10.97265625 20.68359375 C13.53356446 24.8728251 16.16958467 28.98765299 19 33 C18.67 33.66 18.34 34.32 18 35 C17.16094435 33.87926138 16.32892169 32.75325453 15.5 31.625 C15.0359375 30.99851563 14.571875 30.37203125 14.09375 29.7265625 C13 28 13 28 13 26 C12.34 26 11.68 26 11 26 C10.02429581 24.28410643 9.0487574 22.5681183 8.07421875 20.8515625 C7.25531851 19.44007627 6.38803101 18.0565478 5.5 16.6875 C2.53828209 11.38108875 0 6.12258594 0 0 Z " fill="#C1C4BB" transform="translate(91,217)"/>
<path d="M0 0 C0.66 0.33 1.32 0.66 2 1 C0.95458849 2.49129308 -0.11208814 3.96769402 -1.1875 5.4375 C-1.77917969 6.26121094 -2.37085937 7.08492188 -2.98046875 7.93359375 C-5.31932973 10.32674163 -6.7220036 10.68861865 -10 11 C-10 11.66 -10 12.32 -10 13 C-12.64 13.66 -15.28 14.32 -18 15 C-16.50897439 10.39137539 -14.30545582 7.46669756 -11 4 C-10.01 4 -9.02 4 -8 4 C-8 5.65 -8 7.3 -8 9 C-5.47411298 6.63707344 -4.11179163 5.33537489 -3 2 C-2.01 1.34 -1.02 0.68 0 0 Z " fill="#575657" transform="translate(126,117)"/>
<path d="M0 0 C5.65928396 2.82964198 8.27510736 13.7544702 10.28515625 19.4375 C11.2248356 22.80596804 11.30830246 25.53159734 11 29 C10.34 29 9.68 29 9 29 C6.09196486 25.18320388 4.31551124 21.60428934 3 17 C3.66 17 4.32 17 5 17 C4.50109419 12.13566836 2.92236169 8.31084936 0.83984375 3.953125 C0 2 0 2 0 0 Z " fill="#D13B3F" transform="translate(187,53)"/>
<path d="M0 0 C2.125 0.9375 2.125 0.9375 4 2 C3.814375 2.763125 3.62875 3.52625 3.4375 4.3125 C2.77180827 7.08967375 2.77180827 7.08967375 4 10 C2.68 10.33 1.36 10.66 0 11 C0.33 12.98 0.66 14.96 1 17 C-2 16 -2 16 -4 13 C-3.6875 10.75 -3.6875 10.75 -3 8 C-2.855625 6.7625 -2.71125 5.525 -2.5625 4.25 C-2.376875 3.1775 -2.19125 2.105 -2 1 C-1.34 0.67 -0.68 0.34 0 0 Z " fill="#DFA29E" transform="translate(208,70)"/>
<path d="M0 0 C1.25 1.6875 1.25 1.6875 2.625 4 C4.56220332 7.20383626 6.80924441 9.85094621 9.25 12.6875 C8.92 13.3475 8.59 14.0075 8.25 14.6875 C4.3483412 12.08639414 2.86949661 9.15472882 1.0625 4.875 C0.1653125 3.7921875 0.1653125 3.7921875 -0.75 2.6875 C-2.72522203 2.65511931 -4.70540699 2.63530198 -6.67578125 2.77734375 C-10.17402127 2.62581923 -12.07197232 0.82992214 -14.75 -1.3125 C-9.58186783 -3.89656609 -4.81099289 -3.60824467 0 0 Z " fill="#DD8385" transform="translate(178.75,52.3125)"/>
<path d="M0 0 C1.24546405 2.49092811 0.7767578 3.41080733 0 6 C0.639375 6.2475 1.27875 6.495 1.9375 6.75 C4 8 4 8 4.7421875 9.75390625 C5.08019653 12.69868192 4.32536588 14.46546748 3.1875 17.1875 C2.83042969 18.06792969 2.47335938 18.94835937 2.10546875 19.85546875 C1 22 1 22 -1 23 C-0.91621094 22.40832031 -0.83242187 21.81664063 -0.74609375 21.20703125 C-0.19110576 16.90060543 0.23226652 13.24447356 -1 9 C-1.66 9 -2.32 9 -3 9 C-2.30058404 5.85262818 -1.23921302 2.97411124 0 0 Z M-4 9 C-3.34 9.66 -2.68 10.32 -2 11 C-2.99 11.495 -2.99 11.495 -4 12 C-4 11.01 -4 10.02 -4 9 Z " fill="#3F3F43" transform="translate(103,103)"/>
<path d="M0 0 C0.66 0 1.32 0 2 0 C2.40360354 5.50129177 0.98638336 9.73481933 -0.875 14.8125 C-1.27912109 15.97555664 -1.27912109 15.97555664 -1.69140625 17.16210938 C-3.73860608 22.86930304 -3.73860608 22.86930304 -6 24 C-6.36078887 15.16067279 -3.32354349 8.018452 0 0 Z " fill="#A7A69C" transform="translate(104,143)"/>
<path d="M0 0 C0.99 0.33 1.98 0.66 3 1 C3 1.66 3 2.32 3 3 C4.32 2.01 5.64 1.02 7 0 C7.22742222 6.14040005 6.86360591 12.09858129 5 18 C4.34 18.33 3.68 18.66 3 19 C2.34 13.72 1.68 8.44 1 3 C0.01 3.495 0.01 3.495 -1 4 C-0.67 2.68 -0.34 1.36 0 0 Z " fill="#A8A99F" transform="translate(113,157)"/>
<path d="M0 0 C1.32 0.66 2.64 1.32 4 2 C3.67 3.32 3.34 4.64 3 6 C3 5.34 3 4.68 3 4 C0.48916886 5.25541557 0.12874554 6.50063488 -1 9 C-1.99 8.67 -2.98 8.34 -4 8 C-3.2884375 7.13375 -3.2884375 7.13375 -2.5625 6.25 C-1.0515133 4.07417916 -0.45963849 2.57397552 0 0 Z M-10 8 C-8.02 8 -6.04 8 -4 8 C-4.54855348 12.571279 -5.41744803 16.67435795 -7 21 C-7.33 21 -7.66 21 -8 21 C-8.33872513 19.58461283 -8.67074624 18.16762037 -9 16.75 C-9.185625 15.96109375 -9.37125 15.1721875 -9.5625 14.359375 C-10 12 -10 12 -10 8 Z " fill="#E8C9C1" transform="translate(184,87)"/>
<path d="M0 0 C0.85464844 0.00386719 1.70929688 0.00773438 2.58984375 0.01171875 C5.22212739 0.33191755 6.86162922 0.84032916 9.0625 2.3125 C9.3925 3.3025 9.7225 4.2925 10.0625 5.3125 C9.4025 4.9825 8.7425 4.6525 8.0625 4.3125 C4.09442697 2.98980899 1.24229726 2.96989367 -2.9375 3.3125 C-5.21812828 6.73344242 -5.15675007 7.99437222 -5.0625 12 C-5.04445312 12.99386719 -5.02640625 13.98773438 -5.0078125 15.01171875 C-4.98460937 15.77097656 -4.96140625 16.53023437 -4.9375 17.3125 C-7.22678166 15.519835 -7.88668203 14.64331505 -8.3359375 11.71875 C-8.32820312 10.7596875 -8.32046875 9.800625 -8.3125 8.8125 C-8.32023438 7.8534375 -8.32796875 6.894375 -8.3359375 5.90625 C-7.9375 3.3125 -7.9375 3.3125 -6.72265625 1.48828125 C-4.36509247 -0.0645124 -2.80661699 -0.0548662 0 0 Z " fill="#E09990" transform="translate(158.9375,14.6875)"/>
<path d="M0 0 C0.33 0 0.66 0 1 0 C1.33 5.61 1.66 11.22 2 17 C2.33 14.69 2.66 12.38 3 10 C3.33 10 3.66 10 4 10 C4 17.26 4 24.52 4 32 C3.34 32 2.68 32 2 32 C2 28.7 2 25.4 2 22 C1.34 22 0.68 22 0 22 C0 14.74 0 7.48 0 0 Z " fill="#777772" transform="translate(90,169)"/>
<path d="M0 0 C1.07382022 2.70981691 1.10715731 3.74419213 -0.0390625 6.48046875 C-0.56242187 7.37378906 -1.08578125 8.26710937 -1.625 9.1875 C-2.17671875 10.1465625 -2.7284375 11.105625 -3.296875 12.09375 C-4.13992187 13.53234375 -4.13992187 13.53234375 -5 15 C-5.96262949 16.72677868 -6.9214185 18.45570831 -7.875 20.1875 C-8.5828878 21.45858156 -9.29103897 22.72951673 -10 24 C-10.66 24 -11.32 24 -12 24 C-12.04125 24.556875 -12.0825 25.11375 -12.125 25.6875 C-13.46930374 29.24030274 -16.00974189 30.70958953 -19 33 C-18.41636702 29.37661194 -16.98826783 27.58383402 -14.5 24.9375 C-12.21172538 22.4944855 -11.07316243 21.21948729 -10 18 C-9.34 18 -8.68 18 -8 18 C-7.7834375 17.1028125 -7.7834375 17.1028125 -7.5625 16.1875 C-7.1127561 14.43849596 -6.57107659 12.71322977 -6 11 C-5.34 11 -4.68 11 -4 11 C-3.8453125 10.2265625 -3.8453125 10.2265625 -3.6875 9.4375 C-2.75736134 6.13973565 -1.38604488 3.13366668 0 0 Z " fill="#E8DBD3" transform="translate(199,163)"/>
<path d="M0 0 C2.62527189 -0.05382106 5.24944713 -0.09358313 7.875 -0.125 C8.62136719 -0.14175781 9.36773437 -0.15851563 10.13671875 -0.17578125 C12.09194461 -0.1933959 14.04742021 -0.10320189 16 0 C18 2 18 2 18.125 4.625 C18.08375 5.40875 18.0425 6.1925 18 7 C17.34 7 16.68 7 16 7 C15.8453125 7.9590625 15.8453125 7.9590625 15.6875 8.9375 C15.460625 9.618125 15.23375 10.29875 15 11 C14.01 11.33 13.02 11.66 12 12 C12.33 13.32 12.66 14.64 13 16 C12.34 16 11.68 16 11 16 C10.67 14.35 10.34 12.7 10 11 C10.66 11 11.32 11 12 11 C13.52352768 8.06176804 14.78534783 5.07745908 16 2 C15.26394531 2.01160156 14.52789062 2.02320313 13.76953125 2.03515625 C12.79371094 2.04417969 11.81789062 2.05320313 10.8125 2.0625 C9.36810547 2.07990234 9.36810547 2.07990234 7.89453125 2.09765625 C5.14423487 2.00486622 2.67520409 1.62111685 0 1 C0 0.67 0 0.34 0 0 Z " fill="#D6DED5" transform="translate(120,235)"/>
<path d="M0 0 C3.93449672 0.5828884 6.20683331 2.20683331 9 5 C10.85087064 8.64298348 12 11.90074338 12 16 C11.34 16 10.68 16 10 16 C8.4921875 14.1015625 8.4921875 14.1015625 6.875 11.625 C6.33617187 10.81289062 5.79734375 10.00078125 5.2421875 9.1640625 C4 7 4 7 4 5 C3.34 5 2.68 5 2 5 C1.34 3.35 0.68 1.7 0 0 Z " fill="#CB5052" transform="translate(202,58)"/>
<path d="M0 0 C0.66 0.33 1.32 0.66 2 1 C2.625 4.0625 2.625 4.0625 3 7 C3.66 7 4.32 7 5 7 C5 10.63 5 14.26 5 18 C4.34 18 3.68 18 3 18 C3 18.66 3 19.32 3 20 C1.35 20.66 -0.3 21.32 -2 22 C-1.67 20.02 -1.34 18.04 -1 16 C0.32 16 1.64 16 3 16 C2.01 10.72 1.02 5.44 0 0 Z " fill="#DEA49D" transform="translate(195,83)"/>
<path d="M0 0 C0.66 0.33 1.32 0.66 2 1 C0.22006784 3.06097408 -0.86878559 3.95735532 -3.5 4.8125 C-6.95156591 6.45199381 -7.43200918 8.5913243 -9 12 C-9.99 12.8971875 -9.99 12.8971875 -11 13.8125 C-13.51734042 16.56584109 -14.20994793 19.14249202 -15.2734375 22.671875 C-16.28081181 25.89980558 -17.62145911 28.91469421 -19 32 C-19.33 32 -19.66 32 -20 32 C-20.47095911 27.1726691 -19.4999074 24.62004532 -17.0078125 20.6640625 C-15.8654953 18.89509385 -15.8654953 18.89509385 -15 16.3125 C-13.80551027 13.55024249 -12.11477761 12.11477761 -10 10 C-9.29289322 8.35008418 -8.62056011 6.68437744 -8 5 C-5.77077045 2.77077045 -3.90864722 2.11871047 -1 1 C-0.67 0.67 -0.34 0.34 0 0 Z " fill="#A7AAA5" transform="translate(110,97)"/>
<path d="M0 0 C5.69743458 8.54615187 4.20563789 20.15222985 4 30 C3.34 30 2.68 30 2 30 C1.34 25.05 0.68 20.1 0 15 C0.66 15 1.32 15 2 15 C1.855625 14.25234375 1.71125 13.5046875 1.5625 12.734375 C1.2840625 11.25710937 1.2840625 11.25710937 1 9.75 C0.814375 8.77546875 0.62875 7.8009375 0.4375 6.796875 C0 4 0 4 0 0 Z " fill="#D97C7C" transform="translate(200,85)"/>
<path d="M0 0 C0.33 1.32 0.66 2.64 1 4 C1.99 4 2.98 4 4 4 C4.33 5.98 4.66 7.96 5 10 C4.34 10 3.68 10 3 10 C3 8.35 3 6.7 3 5 C-0.37927784 6.12642595 -1.47296158 7.00448298 -3.125 10.125 C-3.41375 10.74375 -3.7025 11.3625 -4 12 C-4.66 12 -5.32 12 -6 12 C-6.66 10.35 -7.32 8.7 -8 7 C-7.34 7 -6.68 7 -6 7 C-6 5.35 -6 3.7 -6 2 C-4.02 2 -2.04 2 0 2 C0 1.34 0 0.68 0 0 Z " fill="#E0A79E" transform="translate(186,75)"/>
<path d="M0 0 C0.721875 0.825 1.44375 1.65 2.1875 2.5 C4.72917366 5.24407806 4.72917366 5.24407806 7.8125 5.3125 C8.8953125 5.1578125 8.8953125 5.1578125 10 5 C10.5345256 6.24420647 11.05208611 7.49570936 11.5625 8.75 C11.85253906 9.44609375 12.14257812 10.1421875 12.44140625 10.859375 C13.07831803 13.30012784 12.80248831 14.6403655 12 17 C9.22595694 14.30556524 6.70854808 11.53534074 4.3125 8.5 C3.71050781 7.7471875 3.10851562 6.994375 2.48828125 6.21875 C1.05064047 4.0754955 0.42961229 2.52039209 0 0 Z " fill="#CC2432" transform="translate(180,54)"/>
<path d="M0 0 C2.68955316 8.41504133 0.0993343 18.04953375 -3 26 C-3.66 25.67 -4.32 25.34 -5 25 C-4.01 17.74 -3.02 10.48 -2 3 C-1.34 3 -0.68 3 0 3 C0 2.01 0 1.02 0 0 Z " fill="#DDDFD6" transform="translate(73,159)"/>
<path d="M0 0 C0.99 0 1.98 0 3 0 C3 6.6 3 13.2 3 20 C2.01 19.67 1.02 19.34 0 19 C0 12.73 0 6.46 0 0 Z " fill="#D05F5D" transform="translate(172,65)"/>
<path d="M0 0 C0 4.02031768 -1.78982488 5.68473732 -4 9 C-4.33 10.010625 -4.66 11.02125 -5 12.0625 C-6.12167051 15.35740712 -7.71225632 17.40722383 -10 20 C-9.76174182 12.49486718 -7.88709198 7.75023509 -3 2 C-2.01 1.34 -1.02 0.68 0 0 Z " fill="#636360" transform="translate(87,135)"/>
<path d="M0 0 C3.05235664 0.61759745 4.84768376 2.24612126 7.0078125 4.40625 C6.0178125 4.40625 5.0278125 4.40625 4.0078125 4.40625 C4.0078125 5.06625 4.0078125 5.72625 4.0078125 6.40625 C3.3478125 6.07625 2.6878125 5.74625 2.0078125 5.40625 C2.3378125 4.41625 2.6678125 3.42625 3.0078125 2.40625 C-0.2921875 2.73625 -3.5921875 3.06625 -6.9921875 3.40625 C-6.6621875 7.69625 -6.3321875 11.98625 -5.9921875 16.40625 C-7.9921875 15.40625 -7.9921875 15.40625 -8.6171875 13.78125 C-9.27534772 9.61290194 -9.61800126 5.93167104 -7.9921875 1.96875 C-5.40910314 -0.04928466 -3.22581884 -0.14284069 0 0 Z " fill="#CA4243" transform="translate(161.9921875,16.59375)"/>
<path d="M0 0 C1.051875 -0.02126953 1.051875 -0.02126953 2.125 -0.04296875 C4 0.1875 4 0.1875 6 2.1875 C3.52625179 3.2476778 1.29160852 4.14145655 -1.375 4.5625 C-3.92935037 5.17067866 -5.46592696 5.96943721 -7.6875 7.3125 C-9.3271875 8.240625 -9.3271875 8.240625 -11 9.1875 C-11.66 8.8575 -12.32 8.5275 -13 8.1875 C-11.87811441 7.03861717 -10.75238316 5.89348863 -9.625 4.75 C-8.99851562 4.11191406 -8.37203125 3.47382812 -7.7265625 2.81640625 C-5.14052219 0.37663519 -3.46370011 0.03183548 0 0 Z " fill="#2E3135" transform="translate(124,89.8125)"/>
<path d="M0 0 C0.66 0.33 1.32 0.66 2 1 C2.33 1.99 2.66 2.98 3 4 C3.99 4.66 4.98 5.32 6 6 C5.67 6.99 5.34 7.98 5 9 C4.01 8.01 3.02 7.02 2 6 C1.67 15.24 1.34 24.48 1 34 C0.67 34 0.34 34 0 34 C-0.16725324 29.3188055 -0.32784864 24.63744899 -0.48217773 19.95581055 C-0.53566794 18.36199744 -0.59100255 16.76824515 -0.64819336 15.17456055 C-0.72990942 12.88864258 -0.80506897 10.60259054 -0.87890625 8.31640625 C-0.90594131 7.59973282 -0.93297638 6.88305939 -0.96083069 6.14466858 C-1.01297644 4.43052233 -1.01185628 2.71489824 -1 1 C-0.67 0.67 -0.34 0.34 0 0 Z " fill="#EAD8CF" transform="translate(212,87)"/>
<path d="M0 0 C1.9375 0.375 1.9375 0.375 4 1 C4.33 1.66 4.66 2.32 5 3 C7.30965848 4.05352843 9.6429774 5.05719096 12 6 C12 6.66 12 7.32 12 8 C12.66 8 13.32 8 14 8 C14 8.66 14 9.32 14 10 C11.23723823 9.47731534 8.6739124 8.89130413 6 8 C6 7.34 6 6.68 6 6 C4.02 6.33 2.04 6.66 0 7 C0 4.69 0 2.38 0 0 Z " fill="#B8BBB0" transform="translate(120,247)"/>
<path d="M0 0 C0.33 0.66 0.66 1.32 1 2 C3.31 2 5.62 2 8 2 C7.67 3.98 7.34 5.96 7 8 C7.66 8 8.32 8 9 8 C8.67 9.98 8.34 11.96 8 14 C7.34 13.67 6.68 13.34 6 13 C6 12.01 6 11.02 6 10 C5.34 10 4.68 10 4 10 C3.34 8.02 2.68 6.04 2 4 C1.34 4 0.68 4 0 4 C0 2.68 0 1.36 0 0 Z " fill="#D6D8CF" transform="translate(132,279)"/>
<path d="M0 0 C0.33 0 0.66 0 1 0 C1.33 4.29 1.66 8.58 2 13 C2.33 11.35 2.66 9.7 3 8 C3.33 8 3.66 8 4 8 C4.23268915 14.28260706 3.40454548 19.88019467 2 26 C1.34 25.67 0.68 25.34 0 25 C0 16.75 0 8.5 0 0 Z " fill="#696966" transform="translate(91,161)"/>
<path d="M0 0 C0.99 0.495 0.99 0.495 2 1 C2.33 1.99 2.66 2.98 3 4 C3.99 4.33 4.98 4.66 6 5 C5.83773926 5.56605957 5.67547852 6.13211914 5.50830078 6.71533203 C4.98402064 9.07182271 4.87067981 11.14349688 4.8671875 13.5546875 C4.86589844 14.41707031 4.86460937 15.27945313 4.86328125 16.16796875 C4.86714844 17.06128906 4.87101563 17.95460938 4.875 18.875 C4.87113281 19.76058594 4.86726562 20.64617187 4.86328125 21.55859375 C4.87012799 26.15275695 5.06029916 30.48048642 6 35 C2.83571212 31.83571212 2.86144382 28.94448799 2.75390625 24.66796875 C2.72103516 23.62189453 2.68816406 22.57582031 2.65429688 21.49804688 C2.59342657 19.30283069 2.53609603 17.1075133 2.48242188 14.91210938 C2.30962826 9.60115086 2.1373384 4.95827896 0 0 Z " fill="#E5B1A6" transform="translate(168,55)"/>
<path d="M0 0 C0.66 0 1.32 0 2 0 C4.04061541 7.17859349 5.37369729 13.52605426 5 21 C4.67 21 4.34 21 4 21 C1.20919651 14.04931961 0.36580804 7.45491562 0 0 Z " fill="#EAB7B0" transform="translate(201,79)"/>
<path d="M0 0 C1.77007714 -0.08114106 3.54122098 -0.13925505 5.3125 -0.1875 C6.29863281 -0.22230469 7.28476563 -0.25710937 8.30078125 -0.29296875 C11 0 11 0 12.85546875 1.51171875 C13.23316406 2.00285156 13.61085937 2.49398437 14 3 C13.67 3.66 13.34 4.32 13 5 C12.2575 4.814375 11.515 4.62875 10.75 4.4375 C8.08243723 3.79630981 8.08243723 3.79630981 5.9375 4.6875 C5.298125 4.790625 4.65875 4.89375 4 5 C1.75 3.125 1.75 3.125 0 1 C0 0.67 0 0.34 0 0 Z " fill="#D8585A" transform="translate(162,46)"/>
<path d="M0 0 C1.5625 1.75 1.5625 1.75 3 4 C2.72117131 7.06711564 1.75752863 8.36370706 0 11 C-0.16713569 13.62531524 -0.16713569 13.62531524 0 16 C-2.0625 13.8125 -2.0625 13.8125 -4 11 C-3.875 8.25 -3.875 8.25 -3 6 C-2.34 5.67 -1.68 5.34 -1 5 C-0.34444881 2.47266765 -0.34444881 2.47266765 0 0 Z " fill="#D84644" transform="translate(182,29)"/>
<path d="M0 0 C0.66 0.66 1.32 1.32 2 2 C0.72208714 6.34490372 -1.40932586 8.50243849 -4.6015625 11.5078125 C-6.42950966 13.4583036 -7.2513237 15.45450057 -8 18 C-8.33 17.34 -8.66 16.68 -9 16 C-6.9346597 10.04696031 -3.59952412 5.13718491 0 0 Z " fill="#EEE7DE" transform="translate(171,176)"/>
<path d="M0 0 C3.39417765 3.12621626 5.6062718 5.56541027 7 10 C6.01 9.67 5.02 9.34 4 9 C4 8.34 4 7.68 4 7 C3.34 7 2.68 7 2 7 C2 7.99 2 8.98 2 10 C1.01 10 0.02 10 -1 10 C-1.125 2.25 -1.125 2.25 0 0 Z " fill="#DEA69E" transform="translate(178,63)"/>
<path d="M0 0 C0 5.61 0 11.22 0 17 C-0.33 17 -0.66 17 -1 17 C-1.33 13.04 -1.66 9.08 -2 5 C-2.66 5 -3.32 5 -4 5 C-4.66 6.65 -5.32 8.3 -6 10 C-6.6875 8.3125 -6.6875 8.3125 -7 6 C-4.06976744 0 -4.06976744 0 0 0 Z " fill="#D8DAD0" transform="translate(82,168)"/>
<path d="M0 0 C0.66 0 1.32 0 2 0 C2 1.65 2 3.3 2 5 C1.34 5 0.68 5 0 5 C0 10.61 0 16.22 0 22 C-0.33 22 -0.66 22 -1 22 C-1.33 17.38 -1.66 12.76 -2 8 C-2.99 8.66 -3.98 9.32 -5 10 C-3.66749209 6.4124787 -2.169283 3.1635377 0 0 Z " fill="#9B9A93" transform="translate(83,145)"/>
<path d="M0 0 C0.33 0 0.66 0 1 0 C2.33583899 4.84241633 3.25328119 8.93437617 3 14 C1.68 14 0.36 14 -1 14 C-1 11.69 -1 9.38 -1 7 C-1.99 7 -2.98 7 -4 7 C-3.67 6.01 -3.34 5.02 -3 4 C-3 4.66 -3 5.32 -3 6 C-2.01 6 -1.02 6 0 6 C0 4.02 0 2.04 0 0 Z " fill="#E5B4AA" transform="translate(195,85)"/>
<path d="M0 0 C1.62463842 -0.05395478 3.24978541 -0.09277195 4.875 -0.125 C5.77992187 -0.14820312 6.68484375 -0.17140625 7.6171875 -0.1953125 C10 0 10 0 12 2 C12.265625 4.2421875 12.265625 4.2421875 12.25 6.875 C12.25515625 7.73867187 12.2603125 8.60234375 12.265625 9.4921875 C12 12 12 12 10 16 C10 11.71 10 7.42 10 3 C9.34 3 8.68 3 8 3 C8 2.34 8 1.68 8 1 C5.36 1 2.72 1 0 1 C0 0.67 0 0.34 0 0 Z " fill="#B6B9B1" transform="translate(122,87)"/>
<path d="M0 0 C2 1 2 1 3.0625 3.0625 C4.23231423 6.72791792 4.61081011 10.17296605 5 14 C4.01 14 3.02 14 2 14 C0 12 0 12 -0.1953125 9.1796875 C-0.17210937 8.08914062 -0.14890625 6.99859375 -0.125 5.875 C-0.10695312 4.77929688 -0.08890625 3.68359375 -0.0703125 2.5546875 C-0.04710937 1.71164063 -0.02390625 0.86859375 0 0 Z " fill="#E3C6C0" transform="translate(216,75)"/>
<path d="M0 0 C0.33 0 0.66 0 1 0 C1.08076963 2.45898655 1.14037143 4.91533742 1.1875 7.375 C1.21263672 8.07367188 1.23777344 8.77234375 1.26367188 9.4921875 C1.29296875 11.5234375 1.29296875 11.5234375 1 15 C0.01 15.66 -0.98 16.32 -2 17 C-2.21824777 10.9981863 -1.5056904 5.80766296 0 0 Z " fill="#9A9C90" transform="translate(97,169)"/>
<path d="M0 0 C0.33 0 0.66 0 1 0 C0.38273804 5.67355671 -0.27945952 11.33861055 -1 17 C-1.66 16.67 -2.32 16.34 -3 16 C-2.88628503 13.70774565 -2.75869036 11.41617612 -2.625 9.125 C-2.55539063 7.84882813 -2.48578125 6.57265625 -2.4140625 5.2578125 C-2 2 -2 2 0 0 Z " fill="#7F7E77" transform="translate(102,167)"/>
<path d="M0 0 C-0.56302958 3.94120709 -1.6791945 6.7508723 -4 10 C-4.66 10 -5.32 10 -6 10 C-6.33663062 6.29706315 -6.47736015 4.60465619 -4.125 1.625 C-2 0 -2 0 0 0 Z " fill="#B7B7AF" transform="translate(112,132)"/>
<path d="M0 0 C2.31 0.33 4.62 0.66 7 1 C7 1.66 7 2.32 7 3 C7.99 3.33 8.98 3.66 10 4 C11.93818042 6.86850702 13.49946106 9.88349604 15 13 C9.125 8.375 9.125 8.375 8 5 C6.845 4.67 5.69 4.34 4.5 4 C3.345 3.67 2.19 3.34 1 3 C0.67 2.01 0.34 1.02 0 0 Z " fill="#E8C5BC" transform="translate(175,23)"/>
<path d="M0 0 C2.38081145 3.57121718 2.26906871 5.26674633 2.25 9.5 C2.25515625 10.6446875 2.2603125 11.789375 2.265625 12.96875 C2 16 2 16 0 19 C-0.66 19 -1.32 19 -2 19 C-2.125 15.625 -2.125 15.625 -2 12 C-1.34 11.34 -0.68 10.68 0 10 C0.24287489 7.55987051 0.24287489 7.55987051 0.125 4.875 C0.10695313 3.96492187 0.08890625 3.05484375 0.0703125 2.1171875 C0.04710938 1.41851562 0.02390625 0.71984375 0 0 Z " fill="#888A81" transform="translate(118,141)"/>
<path d="M0 0 C0.66 0 1.32 0 2 0 C2.71033431 5.52967941 3.30267176 10.49983036 2 16 C-0.14336161 12.5233662 -0.21277626 9.78770805 -0.125 5.75 C-0.10695313 4.67234375 -0.08890625 3.5946875 -0.0703125 2.484375 C-0.04710938 1.66453125 -0.02390625 0.8446875 0 0 Z " fill="#575752" transform="translate(116,141)"/>
<path d="M0 0 C0.6875 1.8125 0.6875 1.8125 1 4 C-0.125 5.4375 -0.125 5.4375 -2 7 C-5.29022576 10.12571447 -7.83027535 13.0031388 -10 17 C-10.33 16.34 -10.66 15.68 -11 15 C-9.01045769 11.16302554 -6.94121841 7.19697653 -4 4 C-3.01 4 -2.02 4 -1 4 C-0.67 2.68 -0.34 1.36 0 0 Z " fill="#A5A6A1" transform="translate(89,129)"/>
<path d="M0 0 C0.33 0 0.66 0 1 0 C1.08733513 3.08315385 1.14050127 6.16598827 1.1875 9.25 C1.21263672 10.12269531 1.23777344 10.99539062 1.26367188 11.89453125 C1.33834499 18.41598332 1.33834499 18.41598332 -0.51171875 21.609375 C-1.00285156 22.06828125 -1.49398437 22.5271875 -2 23 C-2 20.03 -2 17.06 -2 14 C-1.34 14 -0.68 14 0 14 C0 9.38 0 4.76 0 0 Z " fill="#E19690" transform="translate(204,101)"/>
<path d="M0 0 C3.70305325 2.46870217 3.88368502 3.77395044 5 8 C5.34403308 10.33177975 5.67949202 12.66487041 6 15 C6.33 15.33 6.66 15.66 7 16 C7.04080783 17.99958364 7.04254356 20.00045254 7 22 C6.67 22 6.34 22 6 22 C3.98740599 16.44524052 2.48204264 10.97970931 1.4296875 5.1640625 C1.01363829 2.83189357 1.01363829 2.83189357 0 0 Z " fill="#E5BFB6" transform="translate(188,93)"/>
<path d="M0 0 C5.489611 4.70538086 8.2859059 10.85905899 9 18 C8.34 18 7.68 18 7 18 C6.74605469 17.32453125 6.49210938 16.6490625 6.23046875 15.953125 C5.88628906 15.06109375 5.54210937 14.1690625 5.1875 13.25 C4.85105469 12.36828125 4.51460937 11.4865625 4.16796875 10.578125 C3.10994004 7.96899761 3.10994004 7.96899761 1.36328125 5.921875 C0 4 0 4 0 0 Z " fill="#EBB7AE" transform="translate(190,36)"/>
<path d="M0 0 C0.33 0 0.66 0 1 0 C1 2.31 1 4.62 1 7 C1.66 7 2.32 7 3 7 C2.67 9.31 2.34 11.62 2 14 C1.01 14.33 0.02 14.66 -1 15 C-1.10251672 9.87416389 -1.03590199 5.05002222 0 0 Z " fill="#3D3E45" transform="translate(95,145)"/>
<path d="M0 0 C0.99 0.33 1.98 0.66 3 1 C4.80795432 5.0916861 5.21156222 8.55719328 5 13 C4.34 13 3.68 13 3 13 C2.49487756 11.39743892 1.99608373 9.79288208 1.5 8.1875 C1.2215625 7.29417969 0.943125 6.40085937 0.65625 5.48046875 C0 3 0 3 0 0 Z " fill="#E8BFB8" transform="translate(196,64)"/>
<path d="M0 0 C2.04119788 1.61594832 4.04072937 3.2856382 6 5 C6 5.66 6 6.32 6 7 C6.61875 7.28875 7.2375 7.5775 7.875 7.875 C10 9 10 9 12 11 C12 11.99 12 12.98 12 14 C11.34 14 10.68 14 10 14 C9.7525 13.21625 9.505 12.4325 9.25 11.625 C7.7734889 8.52432668 6.99191134 8.40795828 4 7 C0 2.55555556 0 2.55555556 0 0 Z " fill="#D6DED6" transform="translate(114,257)"/>
<path d="M0 0 C0.33 1.32 0.66 2.64 1 4 C0.01 4.33 -0.98 4.66 -2 5 C-2.75407101 7.30657014 -3.411438 9.645752 -4 12 C-4.64199649 13.67632417 -5.29894157 15.34750513 -6 17 C-7.60590933 12.19319655 -6.0336293 8.46906438 -4 4 C-1.8125 1.4375 -1.8125 1.4375 0 0 Z " fill="#545558" transform="translate(105,136)"/>
<path d="M0 0 C0.66 0 1.32 0 2 0 C0.65052197 5.09802813 -2.55957954 8.3319362 -7 11 C-9.9375 10.875 -9.9375 10.875 -12 10 C-12 9.67 -12 9.34 -12 9 C-11.113125 8.773125 -10.22625 8.54625 -9.3125 8.3125 C-5.04565865 6.62186475 -2.07506196 4.15012391 0 0 Z " fill="#E7D0C6" transform="translate(190,153)"/>
<path d="M0 0 C0.66 0 1.32 0 2 0 C2.33 1.32 2.66 2.64 3 4 C2.01 4.33 1.02 4.66 0 5 C-0.33 7.64 -0.66 10.28 -1 13 C-2.5625 11.25 -2.5625 11.25 -4 9 C-3.77649786 5.53571684 -1.95093633 2.80934832 0 0 Z " fill="#EBE2D8" transform="translate(185,91)"/>
<path d="M0 0 C0.99 0.495 0.99 0.495 2 1 C2.625 4.0625 2.625 4.0625 3 7 C3.66 7 4.32 7 5 7 C5 10.3 5 13.6 5 17 C4.67 17 4.34 17 4 17 C1.90429574 11.30601106 0.54981916 6.04801071 0 0 Z " fill="#DB8681" transform="translate(195,83)"/>
<path d="M0 0 C2 2 2 2 3 5 C4.65 5.33 6.3 5.66 8 6 C7.34 7.32 6.68 8.64 6 10 C4.125 9.8125 4.125 9.8125 2 9 C0.21715186 5.70173093 0 3.8225249 0 0 Z " fill="#A6A99E" transform="translate(91,217)"/>
<path d="M0 0 C0.33 0 0.66 0 1 0 C1.33266291 6.20970773 0.45029331 10.28264895 -2 16 C-2.33 16 -2.66 16 -3 16 C-2.52013969 10.43109483 -1.70084819 5.32932432 0 0 Z " fill="#BDBDB5" transform="translate(105,166)"/>
<path d="M0 0 C0.33 0 0.66 0 1 0 C1.10864945 2.06132142 1.18588321 4.12431321 1.25 6.1875 C1.29640625 7.33605469 1.3428125 8.48460937 1.390625 9.66796875 C0.92924572 13.60353399 -0.29971488 15.17745787 -3 18 C-2 12 -1 6 0 0 Z " fill="#EEE3DA" transform="translate(209,135)"/>
<path d="M0 0 C0.99 0.66 1.98 1.32 3 2 C3.34057617 3.87939453 3.34057617 3.87939453 3.29296875 6.1328125 C3.28330078 6.93847656 3.27363281 7.74414062 3.26367188 8.57421875 C3.23853516 9.41597656 3.21339844 10.25773438 3.1875 11.125 C3.17396484 11.97449219 3.16042969 12.82398438 3.14648438 13.69921875 C3.11108219 15.79974837 3.05727401 17.89995293 3 20 C2.67 20 2.34 20 2 20 C2 14.39 2 8.78 2 3 C0.68 3.33 -0.64 3.66 -2 4 C-1.34 2.68 -0.68 1.36 0 0 Z " fill="#B9B9B0" transform="translate(80,165)"/>
<path d="M0 0 C0.33 0 0.66 0 1 0 C1.33 4.95 1.66 9.9 2 15 C-1 12 -1 12 -1.328125 9.3359375 C-1.30234375 8.35882813 -1.2765625 7.38171875 -1.25 6.375 C-1.23453125 5.39273437 -1.2190625 4.41046875 -1.203125 3.3984375 C-1 1 -1 1 0 0 Z " fill="#DFAA9F" transform="translate(152,17)"/>
<path d="M0 0 C0.66 0 1.32 0 2 0 C2 0.66 2 1.32 2 2 C3.32 2.66 4.64 3.32 6 4 C6 4.66 6 5.32 6 6 C6.66 6 7.32 6 8 6 C8 6.66 8 7.32 8 8 C4.21479387 7.45925627 2.40822445 5.92427254 0 3 C0 2.01 0 1.02 0 0 Z " fill="#B8C1B7" transform="translate(126,257)"/>
<path d="M0 0 C2 1 2 1 3.125 4.25 C3.85463482 7.37700635 4.19234975 9.82622905 4 13 C3.34 13 2.68 13 2 13 C2 11.35 2 9.7 2 8 C1.01 8 0.02 8 -1 8 C-0.67 5.36 -0.34 2.72 0 0 Z " fill="#E9C9BE" transform="translate(188,71)"/>
<path d="M0 0 C3.88375805 0.57537156 6.17781201 2.33036271 9 5 C9.8125 7.25 9.8125 7.25 10 9 C9.34 9 8.68 9 8 9 C7.34 7.68 6.68 6.36 6 5 C4.68 5 3.36 5 2 5 C1.34 3.35 0.68 1.7 0 0 Z " fill="#D46A6A" transform="translate(202,58)"/>
<path d="M0 0 C0.66 0.33 1.32 0.66 2 1 C1.67 1.66 1.34 2.32 1 3 C0.01 3 -0.98 3 -2 3 C-1.34 6.3 -0.68 9.6 0 13 C-2 11.375 -2 11.375 -4 9 C-4.25 5.75 -4.25 5.75 -4 3 C-2.68 2.67 -1.36 2.34 0 2 C0 1.34 0 0.68 0 0 Z " fill="#E66766" transform="translate(187,40)"/>
<path d="M0 0 C0.99 0.33 1.98 0.66 3 1 C3 3.97 3 6.94 3 10 C2.01 10.495 2.01 10.495 1 11 C-0.17571451 7.32589215 -0.07366746 3.83070817 0 0 Z " fill="#89887F" transform="translate(84,178)"/>
<path d="M0 0 C0.66 0 1.32 0 2 0 C2.368 5.52 2.368 5.52 0.5625 7.875 C-1 9 -1 9 -2 9 C-1.125 2.25 -1.125 2.25 0 0 Z " fill="#B2B1A5" transform="translate(104,143)"/>
<path d="M0 0 C0.66 0.33 1.32 0.66 2 1 C1.01 3.31 0.02 5.62 -1 8 C-2.65 7.67 -4.3 7.34 -6 7 C-5.34 5.35 -4.68 3.7 -4 2 C-2.68 2 -1.36 2 0 2 C0 1.34 0 0.68 0 0 Z " fill="#6D6D67" transform="translate(93,131)"/>
<path d="M0 0 C0.33 0 0.66 0 1 0 C1.02692484 2.29160319 1.04636124 4.58329546 1.0625 6.875 C1.07410156 8.15117187 1.08570312 9.42734375 1.09765625 10.7421875 C1 14 1 14 0 16 C-0.99 16 -1.98 16 -3 16 C-3 15.01 -3 14.02 -3 13 C-2.34 12.67 -1.68 12.34 -1 12 C-0.53101037 9.1840151 -0.53101037 9.1840151 -0.375 5.9375 C-0.30023438 4.83277344 -0.22546875 3.72804687 -0.1484375 2.58984375 C-0.09945312 1.73519531 -0.05046875 0.88054687 0 0 Z " fill="#9DA096" transform="translate(100,191)"/>
<path d="M0 0 C0 3.39593478 -0.52165948 4.06619881 -2.5 6.6875 C-2.9640625 7.31011719 -3.428125 7.93273437 -3.90625 8.57421875 C-4.2671875 9.04472656 -4.628125 9.51523438 -5 10 C-6 8 -6 8 -5.3125 5.5625 C-3.89170315 2.78856329 -2.60253852 1.64827439 0 0 Z " fill="#464547" transform="translate(87,135)"/>
<path d="M0 0 C0.33 1.32 0.66 2.64 1 4 C1.66 4 2.32 4 3 4 C3 4.66 3 5.32 3 6 C2.34 6 1.68 6 1 6 C1 8.64 1 11.28 1 14 C0.67 14 0.34 14 0 14 C-0.19627391 12.41773035 -0.38165538 10.83410729 -0.5625 9.25 C-0.66691406 8.36828125 -0.77132812 7.4865625 -0.87890625 6.578125 C-0.99456676 4.11567549 -0.73638695 2.33461936 0 0 Z " fill="#6C6C6B" transform="translate(115,135)"/>
<path d="M0 0 C2.35171131 0.59861742 4.6859378 1.26924352 7 2 C7.33 2.66 7.66 3.32 8 4 C6.7315625 3.7525 6.7315625 3.7525 5.4375 3.5 C1.90861144 2.98670712 -1.43932689 2.92878654 -5 3 C-5.33 2.34 -5.66 1.68 -6 1 C-4.7934375 1.0309375 -4.7934375 1.0309375 -3.5625 1.0625 C-1.06645115 1.29633621 -1.06645115 1.29633621 0 0 Z " fill="#DD7473" transform="translate(170,49)"/>
<path d="M0 0 C1.65 0.33 3.3 0.66 5 1 C4.67 1.66 4.34 2.32 4 3 C0.37 3 -3.26 3 -7 3 C-7.33 2.34 -7.66 1.68 -8 1 C-5.36 1.33 -2.72 1.66 0 2 C0 1.34 0 0.68 0 0 Z " fill="#AEB2A8" transform="translate(126,241)"/>
<path d="M0 0 C0.33 0.66 0.66 1.32 1 2 C1.66 2 2.32 2 3 2 C3 2.99 3 3.98 3 5 C1.02 4.34 -0.96 3.68 -3 3 C-3.33 4.32 -3.66 5.64 -4 7 C-4 5.02 -4 3.04 -4 1 C-2.68 0.67 -1.36 0.34 0 0 Z " fill="#E8B6AF" transform="translate(199,114)"/>
<path d="M0 0 C2 2 2 2 2.125 5.625 C2.08375 6.73875 2.0425 7.8525 2 9 C1.34 9 0.68 9 0 9 C-0.99 7.02 -1.98 5.04 -3 3 C-2.34 3 -1.68 3 -1 3 C-0.67 2.01 -0.34 1.02 0 0 Z " fill="#D4404A" transform="translate(196,73)"/>
<path d="M0 0 C0.556875 0.639375 1.11375 1.27875 1.6875 1.9375 C4.22066561 4.19680987 5.68341424 4.63149047 9 5 C9 5.33 9 5.66 9 6 C6.03 6 3.06 6 0 6 C0 4.02 0 2.04 0 0 Z " fill="#C5262F" transform="translate(172,23)"/>
<path d="M0 0 C4.455 0.99 4.455 0.99 9 2 C9 2.66 9 3.32 9 4 C3.375 4.25 3.375 4.25 0 2 C0 1.34 0 0.68 0 0 Z " fill="#969890" transform="translate(117,239)"/>
<path d="M0 0 C0.66 0.66 1.32 1.32 2 2 C0.75023244 5.65316671 0.32901247 6.78065836 -3 9 C-3 7.68 -3 6.36 -3 5 C-2.34 5 -1.68 5 -1 5 C-0.67 3.35 -0.34 1.7 0 0 Z " fill="#E9DED4" transform="translate(171,176)"/>
<path d="M0 0 C-1.49097658 3.7952131 -3.75700849 5.61042731 -7 8 C-6.44414399 4.1090079 -4.34122117 0 0 0 Z " fill="#E9E5DA" transform="translate(187,188)"/>
<path d="M0 0 C2.29633824 3.44450737 2.54016485 5.93812283 3 10 C2.34 10 1.68 10 1 10 C-0.60725635 6.78548731 -0.05748185 3.56387464 0 0 Z " fill="#F0E1D3" transform="translate(171,85)"/>
<path d="M0 0 C0.66 0.33 1.32 0.66 2 1 C2.59355614 3.64860427 2.74209269 6.29197322 3 9 C1.68 8.34 0.36 7.68 -1 7 C-1 6.34 -1 5.68 -1 5 C-0.34 5 0.32 5 1 5 C0.67 3.35 0.34 1.7 0 0 Z " fill="#DA9992" transform="translate(213,69)"/>
<path d="M0 0 C0.99 0.495 0.99 0.495 2 1 C2.33 1.99 2.66 2.98 3 4 C3.99 4.33 4.98 4.66 6 5 C5.625 6.9375 5.625 6.9375 5 9 C4.01 9.495 4.01 9.495 3 10 C2.01 6.7 1.02 3.4 0 0 Z " fill="#E9CCC5" transform="translate(168,55)"/>
<path d="M0 0 C1.32 0 2.64 0 4 0 C3.49396008 2.16874252 3.00016187 3.99967627 2 6 C1.34 6 0.68 6 0 6 C-0.38218767 4.34385343 -0.71395102 2.67542976 -1 1 C-0.67 0.67 -0.34 0.34 0 0 Z " fill="#E48783" transform="translate(190,45)"/>
<path d="M0 0 C0.33 0.66 0.66 1.32 1 2 C1.99 2.33 2.98 2.66 4 3 C4 3.66 4 4.32 4 5 C4.99 5.33 5.98 5.66 7 6 C7 6.66 7 7.32 7 8 C4.525 7.01 4.525 7.01 2 6 C2 5.01 2 4.02 2 3 C1.34 3 0.68 3 0 3 C0 2.01 0 1.02 0 0 Z " fill="#D6DED4" transform="translate(133,251)"/>
<path d="M0 0 C3.00198845 3.00198845 3.95992537 4.95805953 4.125 9.25 C4.08375 10.1575 4.0425 11.065 4 12 C1.21366885 7.82050327 0 5.06624674 0 0 Z " fill="#A5A89F" transform="translate(87,205)"/>
<path d="M0 0 C0.33 0 0.66 0 1 0 C0 7.42857143 0 7.42857143 -1 11 C-1.66 11 -2.32 11 -3 11 C-2.69078116 9.54096742 -2.37751201 8.08279278 -2.0625 6.625 C-1.88847656 5.81289062 -1.71445313 5.00078125 -1.53515625 4.1640625 C-1 2 -1 2 0 0 Z " fill="#E2CBC0" transform="translate(207,142)"/>
<path d="M0 0 C0.66 0 1.32 0 2 0 C1.67 1.98 1.34 3.96 1 6 C0.01 6 -0.98 6 -2 6 C-1.125 1.125 -1.125 1.125 0 0 Z " fill="#ACACA2" transform="translate(98,127)"/>
<path d="M0 0 C0.33 0.99 0.66 1.98 1 3 C1.66 3.33 2.32 3.66 3 4 C0.36 4.66 -2.28 5.32 -5 6 C-4.1875 3.5625 -4.1875 3.5625 -3 1 C-2.01 0.67 -1.02 0.34 0 0 Z " fill="#60615E" transform="translate(113,126)"/>
<path d="M0 0 C2.39489543 0.74324341 3.70777616 1.47057354 4.93359375 3.69140625 C5.67219923 5.44073501 6.34049685 7.21934149 7 9 C6.34 9 5.68 9 5 9 C2.38953552 6.15222057 0.57323431 3.86933162 0 0 Z " fill="#E9C1BC" transform="translate(160,46)"/>
<path d="M0 0 C1.70840281 1.63412443 2.93453047 2.86906094 4 5 C4.04022391 7.3329866 4.04320247 9.66706666 4 12 C3.67 12 3.34 12 3 12 C1.82923301 8.01939223 0.74250597 4.08378283 0 0 Z " fill="#EBB8B1" transform="translate(154,32)"/>
<path d="M0 0 C0.98120464 3.05263664 0.98120464 4.94736336 0 8 C-0.66 8 -1.32 8 -2 8 C-2.33 8.66 -2.66 9.32 -3 10 C-2.49287967 6.28111761 -1.88391785 3.26545761 0 0 Z " fill="#5A5B58" transform="translate(99,131)"/>
<path d="M0 0 C0 1.65 0 3.3 0 5 C-1.98 5.99 -1.98 5.99 -4 7 C-4.33 6.01 -4.66 5.02 -5 4 C-1.125 0 -1.125 0 0 0 Z " fill="#DEABA3" transform="translate(204,133)"/>
<path d="M0 0 C0.66 0 1.32 0 2 0 C2 1.98 2 3.96 2 6 C0.68 6 -0.64 6 -2 6 C-1.34 4.02 -0.68 2.04 0 0 Z " fill="#F1B9B0" transform="translate(198,101)"/>
<path d="M0 0 C0.99 0 1.98 0 3 0 C3 1.98 3 3.96 3 6 C2.01 6 1.02 6 0 6 C0 4.02 0 2.04 0 0 Z " fill="#F1BDBA" transform="translate(195,93)"/>
<path d="M0 0 C2 1.75 2 1.75 4 4 C4 5.32 4 6.64 4 8 C3.34 8 2.68 8 2 8 C0.23537317 4.91190305 0 3.76687864 0 0 Z " fill="#EBB1A5" transform="translate(210,73)"/>
<path d="M0 0 C2 3 2 3 1.625 5.1875 C1.41875 5.785625 1.2125 6.38375 1 7 C-0.32 5.68 -1.64 4.36 -3 3 C-2.67 2.34 -2.34 1.68 -2 1 C-1.34 1.33 -0.68 1.66 0 2 C0 1.34 0 0.68 0 0 Z " fill="#CB1C24" transform="translate(191,64)"/>
<path d="M0 0 C0.66 0 1.32 0 2 0 C3.6875 1.8125 3.6875 1.8125 5 4 C4.67 4.99 4.34 5.98 4 7 C2 5.1875 2 5.1875 0 3 C0 2.01 0 1.02 0 0 Z " fill="#F0CABC" transform="translate(190,53)"/>
<path d="M0 0 C2.31 0 4.62 0 7 0 C7.33 0.99 7.66 1.98 8 3 C3.44615385 3.36923077 3.44615385 3.36923077 1.1875 1.5 C0.5996875 0.7575 0.5996875 0.7575 0 0 Z " fill="#B2B4AD" transform="translate(118,238)"/>
<path d="M0 0 C0.33 0 0.66 0 1 0 C1 2.31 1 4.62 1 7 C0.01 6.67 -0.98 6.34 -2 6 C-1.125 1.125 -1.125 1.125 0 0 Z " fill="#18171C" transform="translate(126,109)"/>
<path d="M0 0 C1.5625 1.75 1.5625 1.75 3 4 C2.8125 6.1875 2.8125 6.1875 2 8 C1.01 8.495 1.01 8.495 0 9 C0 6.03 0 3.06 0 0 Z " fill="#CC474B" transform="translate(182,29)"/>
</svg>
